{"glyphs":{"0":{"ha":957,"x_min":60,"x_max":947,"o":"m 451 1110 q 821 967 682 1135 q 919 754 890 882 q 940 514 947 626 q 904 310 933 401 q 801 111 867 189 q 618 1 735 33 q 420 -3 543 -24 q 229 76 297 17 q 147 181 182 118 q 94 308 113 244 q 68 441 76 372 q 60 565 60 510 q 67 663 61 619 q 324 1074 113 972 q 451 1110 388 1104 m 421 904 q 342 737 364 857 q 319 524 319 617 l 319 494 q 424 174 329 236 q 488 156 449 158 q 547 163 528 153 q 661 365 632 196 q 677 532 674 438 q 659 740 681 626 q 586 901 638 853 q 472 932 536 950 q 421 904 442 924 z "},"1":{"ha":957,"x_min":333,"x_max":683,"o":"m 339 0 q 392 55 382 28 q 401 139 401 82 q 401 148 401 144 q 401 156 401 151 l 401 876 q 391 958 401 936 q 333 1007 381 979 q 494 1049 435 1031 l 621 1097 l 621 156 q 631 54 621 76 q 683 0 643 26 l 339 0 z "},"2":{"ha":957,"x_min":96,"x_max":893,"o":"m 504 193 l 701 193 q 772 194 751 193 q 831 208 792 194 q 893 250 869 222 l 893 0 l 96 0 l 376 344 q 571 808 621 649 q 456 924 544 897 q 219 864 338 957 q 183 829 200 847 q 157 801 165 811 q 138 776 149 792 q 124 758 126 761 l 124 844 q 124 874 124 847 q 124 907 124 901 q 125 935 124 913 q 131 967 126 958 q 141 992 135 976 q 158 1019 147 1008 q 182 1039 168 1029 q 385 1107 263 1090 q 610 1088 508 1124 q 753 992 703 1050 q 826 843 804 935 q 802 599 857 715 q 608 318 747 483 l 504 193 z "},"3":{"ha":957,"x_min":139,"x_max":890,"o":"m 701 592 q 847 473 804 533 q 886 318 890 413 q 835 151 882 221 q 682 32 789 82 q 381 -8 568 -21 q 151 68 201 4 q 147 74 149 71 q 143 83 144 78 q 141 92 142 88 q 140 106 140 97 q 139 120 139 114 q 139 138 139 126 q 139 158 139 149 q 139 183 139 167 q 139 211 139 199 l 139 300 q 291 182 206 217 q 460 158 376 147 q 608 264 572 176 q 599 424 647 356 q 578 447 590 436 q 550 465 565 457 q 521 477 535 472 q 487 485 507 482 q 454 491 467 489 q 419 494 442 493 q 388 494 397 494 q 358 494 379 494 q 333 494 336 494 l 294 494 l 294 665 l 325 665 l 350 665 q 384 665 376 665 q 417 667 392 665 q 453 671 442 668 q 487 678 465 674 q 521 691 508 683 q 547 710 533 699 q 571 735 561 721 q 588 856 611 796 q 485 929 563 913 q 342 915 422 942 q 206 832 263 889 q 151 772 168 794 l 151 835 q 151 874 151 843 q 151 910 151 904 q 153 939 151 917 q 157 967 154 961 q 165 989 160 974 q 179 1012 171 1004 q 199 1029 188 1019 q 226 1049 211 1039 q 471 1112 328 1107 q 719 1058 614 1117 q 857 831 857 979 q 821 696 856 753 q 701 592 786 639 z "},"4":{"ha":957,"x_min":100,"x_max":901,"o":"m 386 418 l 554 418 l 554 618 l 386 418 m 775 156 q 785 54 775 76 q 838 0 797 26 l 493 0 q 553 86 547 36 q 554 156 554 99 l 554 238 l 138 238 l 100 326 l 775 1126 l 775 418 q 842 424 822 418 q 868 438 853 428 q 892 457 883 449 l 901 465 l 901 319 q 883 251 901 264 q 775 238 864 238 l 775 156 z "},"5":{"ha":957,"x_min":172,"x_max":899,"o":"m 804 1139 l 804 1079 q 802 970 804 992 q 785 933 800 949 q 643 913 764 913 l 536 913 q 419 906 432 913 q 401 889 410 900 q 393 829 393 876 l 393 690 q 533 692 463 692 q 685 662 604 693 q 817 565 765 631 q 885 412 871 499 q 874 254 899 325 q 643 15 822 78 q 421 -10 550 -17 q 222 39 292 -3 q 181 88 188 60 q 174 196 174 117 q 174 226 174 215 l 174 299 q 310 178 249 210 q 458 156 372 147 q 617 257 571 169 q 633 341 633 288 q 614 425 632 394 q 450 513 571 504 q 193 460 335 521 l 193 1101 l 686 1101 q 804 1139 769 1101 z "},"6":{"ha":957,"x_min":104,"x_max":910,"o":"m 831 807 q 708 910 782 874 q 567 939 635 946 q 476 908 519 935 q 408 839 433 882 q 382 728 382 790 q 503 756 438 749 q 651 747 569 764 q 788 681 732 729 q 886 502 863 615 q 896 299 910 389 q 683 18 860 89 q 567 -9 633 -1 q 421 -2 501 -17 q 285 54 340 13 q 197 151 233 93 q 142 272 160 210 q 115 402 125 335 q 106 526 104 469 q 111 632 108 583 q 124 730 117 688 q 150 826 132 772 q 193 920 168 879 q 261 1001 218 961 q 360 1068 304 1040 q 583 1112 457 1114 q 785 1063 710 1110 q 799 1053 793 1058 q 809 1043 804 1047 q 817 1031 814 1039 q 823 1019 821 1024 q 826 1005 825 1015 q 829 990 828 994 q 831 971 831 985 q 831 951 831 957 q 831 926 831 944 q 831 900 831 908 l 831 807 m 428 546 q 392 462 401 518 q 386 361 383 406 q 396 286 389 317 q 483 164 419 188 q 583 175 535 146 q 651 374 651 222 q 634 481 651 421 q 578 569 617 542 q 474 578 532 600 q 428 546 446 565 z "},"7":{"ha":957,"x_min":128,"x_max":893,"o":"m 893 1101 q 646 485 776 867 q 525 0 543 181 l 264 0 q 335 299 278 113 q 597 904 406 528 l 289 904 q 182 890 214 904 q 128 854 154 878 q 139 983 138 932 l 135 1101 l 893 1101 z "},"8":{"ha":957,"x_min":114,"x_max":893,"o":"m 713 583 q 851 462 808 528 q 888 297 893 396 q 844 153 885 224 q 726 40 803 82 q 489 -11 636 -10 q 265 33 342 -12 q 118 271 125 115 q 153 425 114 354 q 268 542 192 496 q 157 676 192 597 q 133 839 122 756 q 184 967 143 906 q 297 1065 225 1029 q 502 1112 389 1110 q 707 1065 615 1114 q 851 860 839 993 q 817 699 860 782 q 713 583 774 617 m 385 865 q 377 808 374 844 q 397 750 381 771 q 529 678 440 693 q 610 761 588 708 q 603 889 642 844 q 476 931 558 940 q 385 865 411 921 m 365 246 q 456 158 386 175 q 590 188 536 139 q 629 303 638 229 q 514 424 621 376 q 443 447 483 436 q 419 432 438 444 q 363 340 376 400 q 365 246 350 279 z "},"9":{"ha":957,"x_min":96,"x_max":903,"o":"m 168 296 q 294 190 215 228 q 440 160 372 153 q 532 190 489 164 q 599 260 575 217 q 625 372 625 308 q 503 344 569 351 q 356 353 438 336 q 219 419 275 371 q 120 599 144 485 q 111 803 96 713 q 324 1083 147 1013 q 440 1110 374 1103 q 586 1103 506 1118 q 722 1047 667 1089 q 810 949 774 1008 q 865 828 847 890 q 892 699 882 767 q 901 574 903 631 q 896 468 899 517 q 877 344 889 397 q 840 228 865 292 q 765 114 814 164 q 647 31 717 64 q 419 -11 550 -15 q 213 40 289 -7 q 198 51 204 46 q 187 63 192 56 q 178 75 182 71 q 173 90 175 79 q 170 106 171 101 q 169 125 169 110 q 168 147 168 140 q 168 173 168 153 q 168 201 168 193 l 168 296 m 579 553 q 615 638 606 582 q 621 740 624 694 q 611 815 618 785 q 524 938 589 913 q 424 925 472 957 q 356 728 356 878 q 373 619 356 681 q 429 529 390 557 q 533 521 475 500 q 579 553 561 533 z "}," ":{"ha":228,"x_min":0,"x_max":0,"o":"m 0 0 z "},"!":{"ha":351,"x_min":57,"x_max":375,"o":"m 201 299 q 158 533 196 371 q 106 719 133 638 q 69 842 81 793 q 60 951 57 892 q 94 1051 64 1010 q 201 1110 138 1110 q 311 1053 268 1110 q 301 725 375 965 q 247 536 258 585 q 201 299 210 381 m 168 218 q 269 207 221 240 q 321 113 321 174 q 264 11 321 47 q 215 -6 243 -3 q 163 0 186 -10 q 94 83 104 24 q 168 218 79 181 z "},"\"":{"ha":521,"x_min":100,"x_max":485,"o":"m 204 633 l 165 633 l 122 864 q 116 895 122 867 q 107 943 110 924 q 102 991 104 963 q 105 1042 100 1019 q 121 1079 110 1064 q 183 1108 142 1111 q 250 1072 228 1106 q 260 1051 257 1063 q 265 1022 264 1039 q 265 994 265 1006 q 262 960 265 982 q 257 931 258 939 q 251 899 256 922 q 246 872 246 875 l 204 633 m 424 633 l 382 633 l 340 864 q 334 895 340 867 q 325 943 328 924 q 320 991 322 963 q 323 1042 318 1019 q 339 1079 328 1064 q 403 1108 360 1111 q 468 1072 447 1106 q 481 1042 478 1060 q 483 997 485 1024 q 480 956 482 971 q 472 910 478 942 q 465 872 467 878 l 424 633 z "},"#":{"ha":1114,"x_min":64,"x_max":1096,"o":"m 521 1036 l 675 1036 l 574 740 l 742 740 l 847 1036 l 1001 1036 l 901 740 l 1096 740 l 1053 606 l 854 606 l 793 432 l 985 432 l 943 300 l 744 300 l 638 0 l 483 0 l 585 296 l 419 296 l 311 0 l 154 0 l 258 296 l 64 296 l 107 432 l 304 432 l 363 606 l 174 606 l 214 740 l 411 740 l 521 1036 m 464 432 l 632 432 l 694 606 l 529 606 l 464 432 z "},"$":{"ha":644,"x_min":64,"x_max":658,"o":"m 288 981 l 404 981 l 404 879 q 558 824 528 857 q 588 667 588 790 l 588 629 q 512 701 556 682 q 404 726 468 721 l 404 588 l 422 582 q 455 572 426 581 q 492 561 483 564 q 524 549 500 558 q 557 532 547 540 q 583 510 567 524 q 608 481 599 497 q 624 444 617 465 q 581 233 658 333 q 404 128 521 158 l 404 1 l 288 1 l 288 117 q 89 189 144 132 q 84 195 86 192 q 80 202 82 199 q 76 211 78 206 q 74 221 75 217 q 73 233 74 225 q 72 247 72 242 q 72 264 72 253 q 72 283 72 275 q 72 306 72 290 q 72 332 72 321 l 72 378 q 174 301 126 324 q 288 275 221 279 l 288 400 q 257 408 283 401 q 211 422 231 414 q 165 442 192 429 q 118 477 139 456 q 83 526 97 499 q 66 626 64 568 q 90 728 68 685 q 288 874 153 851 l 288 981 m 256 661 q 265 631 256 644 q 288 615 275 618 l 288 707 q 256 661 256 693 m 404 289 q 429 308 418 292 q 439 342 440 324 q 404 381 435 371 l 404 289 z "},"%":{"ha":846,"x_min":64,"x_max":847,"o":"m 229 1097 q 325 1094 272 1106 q 413 1047 378 1082 q 465 922 454 1006 q 461 794 475 839 q 338 635 435 674 q 245 621 300 618 q 154 650 190 624 q 67 863 64 713 q 90 978 67 921 q 167 1069 113 1036 q 229 1097 196 1089 m 792 1086 l 243 1 l 115 1 l 660 1086 l 792 1086 m 213 790 q 250 725 222 738 q 293 735 271 718 q 323 819 318 754 q 324 915 328 883 q 289 993 318 979 q 242 990 265 1006 q 210 890 215 971 q 213 790 204 810 m 601 467 q 697 463 644 475 q 785 417 750 451 q 837 291 826 375 q 833 164 847 207 q 710 4 807 43 q 617 -10 672 -12 q 525 19 563 -7 q 439 231 436 82 q 538 439 439 375 q 601 467 569 460 m 585 160 q 622 94 594 107 q 665 104 643 88 q 695 188 690 124 q 696 285 700 253 q 661 363 690 349 q 614 360 638 375 q 582 260 588 340 q 585 160 576 179 z "},"&":{"ha":1057,"x_min":78,"x_max":1060,"o":"m 793 1117 l 793 846 q 701 935 760 906 q 578 963 642 965 q 461 890 489 957 q 472 756 435 832 q 588 583 510 679 q 735 406 721 418 q 752 470 747 446 q 751 528 757 494 q 719 593 744 563 l 982 593 q 943 503 944 553 q 878 224 936 346 q 928 165 888 213 q 1004 77 968 118 q 1060 19 1040 36 l 810 19 q 753 22 760 19 q 718 58 746 25 q 470 -13 607 -7 q 228 43 333 -19 q 78 301 78 138 q 126 473 78 399 q 276 611 174 547 q 247 972 154 810 q 560 1135 338 1132 q 674 1122 619 1135 q 697 1117 681 1121 q 720 1110 713 1113 q 741 1108 728 1108 q 767 1109 754 1107 q 793 1117 779 1111 m 335 293 q 429 168 356 201 q 596 192 506 132 l 379 468 q 335 293 314 390 z "},"'":{"ha":300,"x_min":58,"x_max":304,"o":"m 111 735 q 172 863 161 803 q 74 951 90 883 q 104 1067 58 1017 q 206 1099 147 1113 q 289 1026 265 1088 q 293 931 304 990 q 247 828 282 871 q 183 770 224 797 q 111 735 142 743 z "},"(":{"ha":460,"x_min":65,"x_max":450,"o":"m 365 1199 l 449 1136 q 348 907 374 1022 q 315 608 322 792 q 315 425 311 497 q 450 -12 335 115 l 378 -71 q 192 147 267 11 q 91 415 117 283 q 78 658 65 547 q 163 949 93 803 q 365 1199 233 1096 z "},")":{"ha":460,"x_min":74,"x_max":458,"o":"m 446 658 q 433 415 458 547 q 332 147 407 283 q 146 -71 257 11 l 74 -12 q 207 425 188 114 q 207 608 211 497 q 175 907 200 792 q 75 1136 150 1022 l 158 1199 q 360 949 290 1096 q 446 658 431 803 z "},"*":{"ha":306,"x_min":57,"x_max":294,"o":"m 204 1013 q 224 1028 213 1018 q 243 1043 236 1038 q 268 1050 258 1053 q 288 1026 281 1044 q 289 993 294 1008 q 219 969 282 978 q 238 963 226 967 q 256 956 250 958 q 270 949 263 953 q 282 942 278 946 q 288 933 286 938 q 276 897 292 913 q 244 885 258 879 q 231 893 238 888 q 214 913 224 899 q 197 933 204 926 q 202 916 199 929 q 207 897 206 903 q 209 880 208 890 q 208 863 210 869 q 200 853 206 857 q 164 844 182 838 q 139 868 140 850 q 142 890 139 875 q 150 917 146 906 l 154 928 q 121 896 142 917 q 88 883 101 875 q 79 888 81 888 q 74 892 78 889 q 69 899 71 896 q 64 910 67 903 q 61 938 57 926 q 100 958 64 946 q 115 963 101 958 q 139 971 129 968 q 68 1001 74 988 q 72 1032 63 1015 q 110 1056 92 1058 q 130 1042 117 1054 q 153 1019 143 1031 l 163 1008 q 157 1026 161 1014 q 151 1044 153 1038 q 149 1060 150 1051 q 149 1076 147 1069 q 154 1086 150 1082 q 190 1097 167 1103 q 217 1075 211 1093 q 216 1063 218 1072 q 210 1040 214 1054 q 204 1013 206 1025 z "},"+":{"ha":1075,"x_min":119,"x_max":1015,"o":"m 450 886 l 685 886 l 685 557 l 1015 557 l 1015 331 l 685 331 l 685 0 l 450 0 l 450 328 l 119 328 l 119 557 l 450 557 l 450 886 z "},",":{"ha":301,"x_min":51,"x_max":297,"o":"m 104 -137 q 165 -10 154 -69 q 99 22 122 3 q 67 81 76 42 q 97 194 51 146 q 199 226 140 240 q 282 156 257 215 q 286 60 297 121 q 240 -44 275 -1 q 176 -102 217 -75 q 104 -137 135 -129 z "},"-":{"ha":433,"x_min":72,"x_max":431,"o":"m 72 664 l 431 664 l 431 497 l 72 497 l 72 664 z "},".":{"ha":301,"x_min":69,"x_max":296,"o":"m 69 125 q 103 204 69 171 q 182 238 136 238 q 263 204 229 238 q 296 125 296 171 q 263 44 296 78 q 182 11 229 11 q 103 44 136 11 q 69 125 69 78 z "},"/":{"ha":878,"x_min":64,"x_max":874,"o":"m 782 1189 l 874 1133 l 157 -74 l 64 -18 l 782 1189 z "},":":{"ha":311,"x_min":75,"x_max":301,"o":"m 75 121 q 108 200 75 167 q 188 233 142 233 q 268 200 235 233 q 301 121 301 167 q 268 40 301 74 q 188 7 235 7 q 108 40 142 7 q 75 121 75 74 m 108 557 q 92 574 108 557 q 75 638 75 590 q 108 718 75 685 q 188 751 142 751 q 268 718 235 751 q 301 638 301 685 q 268 557 301 590 q 188 524 235 524 q 108 557 142 524 z "},";":{"ha":311,"x_min":60,"x_max":306,"o":"m 106 557 q 89 574 106 557 q 72 638 72 590 q 106 718 72 685 q 185 751 139 751 q 265 718 232 751 q 299 638 299 685 q 265 557 299 590 q 185 524 232 524 q 106 557 139 524 m 113 -137 q 174 -10 163 -69 q 108 22 131 3 q 75 81 85 42 q 106 194 60 146 q 207 226 149 240 q 290 156 265 215 q 294 60 306 121 q 249 -44 283 -1 q 184 -102 225 -75 q 113 -137 143 -129 z "},"<":{"ha":794,"x_min":86,"x_max":754,"o":"m 86 501 l 754 749 l 754 571 l 325 419 l 754 265 l 754 89 l 86 338 l 86 501 z "},"=":{"ha":1199,"x_min":94,"x_max":1168,"o":"m 94 706 l 1168 706 l 1168 489 l 94 489 l 94 706 m 94 350 l 1168 350 l 1168 133 l 94 133 l 94 350 z "},">":{"ha":797,"x_min":100,"x_max":768,"o":"m 768 501 l 768 338 l 100 89 l 100 265 l 528 419 l 100 571 l 100 749 l 768 501 z "},"?":{"ha":693,"x_min":69,"x_max":685,"o":"m 378 494 l 378 286 l 185 286 l 186 479 l 179 646 l 190 643 q 407 696 343 615 q 436 775 431 725 q 428 857 442 825 q 324 944 401 928 q 192 937 261 957 q 69 875 124 917 l 69 1082 q 135 1085 93 1069 q 288 1121 222 1111 q 428 1117 354 1131 q 563 1058 503 1104 q 653 945 621 1013 q 685 810 685 878 q 656 678 685 744 q 569 568 628 611 q 378 494 479 500 m 160 119 q 192 199 160 165 q 272 232 225 232 q 353 199 319 232 q 386 119 386 165 q 353 39 386 72 q 272 6 319 6 q 192 39 225 6 q 160 119 160 72 z "},"@":{"ha":1392,"x_min":65,"x_max":1383,"o":"m 849 243 q 618 104 760 101 q 511 131 565 104 q 424 213 457 157 q 392 378 385 286 q 438 540 400 469 q 561 692 483 633 q 725 758 639 751 q 821 747 769 763 q 900 692 872 731 q 925 647 908 681 l 950 733 l 1142 733 l 1049 411 q 1040 382 1047 407 q 1028 337 1033 357 q 1019 291 1024 317 q 1016 246 1014 265 q 1026 218 1018 226 q 1097 203 1051 193 q 1254 372 1199 224 q 1292 580 1297 463 q 1225 790 1288 697 q 1086 903 1175 860 q 919 960 997 947 q 772 969 840 972 q 304 664 467 953 q 233 391 236 544 q 294 117 229 238 q 471 -70 361 -8 q 710 -142 581 -132 q 963 -117 842 -150 q 1215 -6 1083 -85 l 1254 -64 q 976 -197 1115 -153 q 685 -234 836 -242 q 403 -154 535 -226 q 76 332 104 11 q 129 647 65 492 q 353 917 193 801 q 589 1022 454 989 q 854 1048 724 1056 q 1089 994 985 1040 q 1277 843 1203 942 q 1369 622 1351 744 q 1345 382 1383 517 q 1214 174 1307 247 q 1084 113 1157 129 q 946 117 1011 96 q 881 163 903 133 q 849 243 858 192 m 596 294 q 633 208 593 232 q 719 208 672 179 q 824 356 781 238 q 875 547 868 475 q 842 647 883 618 q 760 658 810 675 q 673 558 713 639 q 615 403 633 476 q 596 294 597 329 z "},"A":{"ha":975,"x_min":47,"x_max":989,"o":"m 617 1088 q 643 960 617 1036 l 908 139 q 942 53 926 83 q 989 0 958 22 l 622 0 q 640 10 635 7 q 655 22 646 13 q 666 40 664 31 q 667 67 668 50 q 661 108 667 85 l 603 286 l 357 286 l 331 192 q 307 103 313 129 q 305 50 301 78 q 328 0 308 22 l 47 0 q 117 126 97 50 l 350 944 q 365 1022 367 988 q 332 1088 364 1056 l 617 1088 m 404 469 l 547 469 l 471 735 l 404 469 z "},"B":{"ha":894,"x_min":57,"x_max":897,"o":"m 357 918 l 357 663 q 416 653 383 656 q 494 658 449 650 q 563 693 539 667 q 594 760 586 718 q 593 838 603 803 q 513 911 579 893 q 357 918 482 918 m 357 226 q 385 169 357 183 q 456 160 406 160 q 529 169 506 161 q 619 263 597 189 q 624 340 631 297 q 593 411 617 383 q 569 433 583 424 q 542 449 556 443 q 510 460 529 456 q 477 466 490 464 q 442 469 464 468 q 411 471 421 471 q 381 471 401 471 q 357 471 360 471 l 357 226 m 57 0 q 110 55 100 28 q 119 139 119 82 q 119 148 119 144 q 119 156 119 151 l 119 932 q 110 1033 119 1011 q 57 1088 97 1061 l 436 1088 q 473 1088 440 1088 q 516 1088 506 1088 q 558 1086 526 1088 q 606 1081 590 1085 q 649 1071 621 1076 q 695 1056 678 1065 q 735 1033 713 1046 q 774 1001 757 1019 q 807 960 792 983 q 845 822 844 900 q 811 685 846 744 q 696 567 772 617 q 824 476 782 524 q 876 349 865 429 q 814 106 897 204 q 679 20 758 40 q 500 0 600 0 l 57 0 z "},"C":{"ha":871,"x_min":67,"x_max":858,"o":"m 858 1089 l 858 792 q 738 901 814 858 q 594 943 663 944 q 386 825 460 940 q 324 557 328 729 q 372 286 321 385 q 554 154 432 167 q 691 173 618 147 q 815 263 764 199 q 858 322 846 300 l 858 78 q 610 -21 751 -4 q 363 10 469 -37 q 81 374 131 104 q 69 507 67 422 q 85 678 72 592 q 136 852 97 764 q 235 996 175 940 q 354 1074 288 1044 q 485 1113 421 1104 q 604 1118 549 1121 q 706 1103 660 1115 q 776 1085 760 1089 q 815 1081 793 1081 q 858 1089 838 1081 z "},"D":{"ha":967,"x_min":61,"x_max":957,"o":"m 361 336 q 368 203 361 222 q 389 176 374 186 q 463 167 413 165 q 540 176 513 168 q 668 340 635 210 q 683 472 678 376 q 675 683 689 567 q 621 847 661 799 q 534 901 589 886 q 448 916 479 917 q 361 910 417 915 l 361 336 m 429 1088 q 454 1088 438 1088 q 528 1087 503 1088 q 598 1082 554 1086 q 671 1067 642 1078 q 736 1039 700 1057 q 802 991 772 1021 q 860 919 832 961 q 951 571 944 789 q 885 219 957 353 q 806 105 849 150 q 708 38 763 60 q 602 8 654 15 q 476 0 550 0 l 61 0 q 114 55 104 28 q 124 139 124 82 q 124 148 124 144 q 124 156 124 151 l 124 932 q 114 1033 124 1011 q 61 1088 101 1061 l 429 1088 z "},"E":{"ha":774,"x_min":61,"x_max":774,"o":"m 567 640 q 653 647 633 640 q 700 683 674 653 l 700 425 q 653 462 674 456 q 567 468 633 468 l 361 468 l 361 282 q 382 188 361 204 q 453 172 403 172 l 636 172 q 774 236 729 172 l 774 0 l 61 0 q 114 55 104 28 q 124 139 124 82 q 124 148 124 144 q 124 156 124 151 l 124 932 q 114 1033 124 1011 q 61 1088 101 1061 l 728 1088 l 728 876 q 712 890 719 883 q 694 900 704 896 q 678 908 685 904 q 660 913 672 911 q 644 915 649 914 q 625 917 639 917 q 608 918 611 918 q 589 918 606 918 q 571 918 572 918 l 361 918 l 361 640 l 567 640 z "},"F":{"ha":731,"x_min":61,"x_max":728,"o":"m 361 156 q 371 54 361 76 q 424 0 383 26 l 61 0 q 81 14 72 7 q 97 29 90 21 q 108 42 104 38 q 115 58 113 47 q 120 74 118 69 q 123 92 122 78 q 124 110 124 106 q 124 132 124 114 q 124 156 124 150 l 124 932 q 114 1033 124 1011 q 61 1088 101 1061 l 728 1088 l 728 876 q 712 890 719 883 q 694 900 704 896 q 678 908 685 904 q 660 913 672 911 q 644 915 649 914 q 625 917 639 917 q 608 918 611 918 q 589 918 606 918 q 571 918 572 918 l 361 918 l 361 640 l 567 640 q 653 647 633 640 q 700 683 674 653 l 700 425 q 653 462 674 456 q 567 468 633 468 l 361 468 l 361 156 z "},"G":{"ha":932,"x_min":67,"x_max":915,"o":"m 690 1111 q 749 1099 707 1108 q 810 1088 792 1090 q 856 1088 829 1085 q 899 1103 882 1090 l 899 765 q 629 935 818 924 q 393 824 474 944 q 337 659 353 764 q 331 451 321 554 q 372 286 342 349 q 542 160 424 171 q 661 199 626 153 q 678 278 678 219 l 678 415 l 558 415 q 469 394 500 415 l 469 596 l 915 596 l 915 118 q 703 -8 825 22 q 464 -17 582 -37 q 273 63 364 1 q 133 232 182 125 q 75 559 67 372 q 164 885 83 746 q 322 1051 226 994 q 525 1117 418 1107 q 690 1111 619 1124 z "},"H":{"ha":971,"x_min":65,"x_max":963,"o":"m 663 649 l 663 932 q 653 1033 663 1011 q 600 1088 640 1061 l 963 1088 q 910 1033 919 1060 q 900 949 900 1006 q 900 940 900 943 q 900 932 900 936 l 900 156 q 910 54 900 76 q 963 0 922 26 l 600 0 q 653 55 643 28 q 663 139 663 82 q 663 148 663 144 q 663 156 663 151 l 663 463 l 365 463 l 365 156 q 375 54 365 76 q 428 0 388 26 l 65 0 q 118 55 108 28 q 128 139 128 82 q 128 148 128 144 q 128 156 128 151 l 128 932 q 118 1033 128 1011 q 65 1088 103 1063 l 428 1088 q 375 1033 385 1060 q 365 949 365 1006 q 365 940 365 943 q 365 932 365 936 l 365 649 l 663 649 z "},"I":{"ha":428,"x_min":61,"x_max":424,"o":"m 361 156 q 371 54 361 76 q 424 0 383 26 l 61 0 q 114 55 104 28 q 124 139 124 82 q 124 148 124 144 q 124 156 124 151 l 124 932 q 114 1033 124 1011 q 61 1088 101 1061 l 424 1088 q 371 1033 381 1060 q 361 949 361 1006 q 361 940 361 943 q 361 932 361 936 l 361 156 z "},"J":{"ha":428,"x_min":-106,"x_max":422,"o":"m 122 932 q 113 1033 122 1011 q 60 1088 100 1061 l 422 1088 q 369 1033 379 1060 q 360 949 360 1006 q 360 940 360 943 q 360 932 360 936 l 360 268 q 356 159 360 201 q 335 64 351 117 q 283 -33 319 11 q 188 -117 246 -76 q 63 -169 138 -150 q -51 -176 -12 -187 l -106 -29 q 67 -4 -10 -60 q 113 61 104 24 q 122 181 122 99 l 122 932 z "},"K":{"ha":986,"x_min":61,"x_max":1006,"o":"m 361 675 l 507 868 q 574 975 549 925 q 591 1031 592 1008 q 567 1088 590 1054 l 919 1088 q 895 1067 906 1076 q 878 1052 885 1058 q 861 1033 871 1046 q 847 1015 851 1021 q 825 986 842 1008 q 799 951 808 964 l 553 625 l 911 96 q 1006 0 951 33 l 585 0 q 597 89 626 44 l 386 403 l 361 369 l 361 156 q 371 54 361 76 q 424 0 383 26 l 61 0 q 114 55 104 28 q 124 139 124 82 q 124 148 124 144 q 124 156 124 151 l 124 932 q 114 1033 124 1011 q 61 1088 101 1061 l 424 1088 q 371 1033 381 1060 q 361 949 361 1006 q 361 940 361 943 q 361 932 361 936 l 361 675 z "},"L":{"ha":750,"x_min":65,"x_max":747,"o":"m 65 0 q 118 55 108 28 q 128 139 128 82 q 128 148 128 144 q 128 156 128 151 l 128 932 q 118 1033 128 1011 q 65 1088 103 1063 l 428 1088 q 375 1033 385 1060 q 365 949 365 1006 q 365 940 365 943 q 365 932 365 936 l 365 282 q 386 188 365 204 q 457 172 407 172 l 610 172 q 747 236 703 172 l 747 0 l 65 0 z "},"M":{"ha":1197,"x_min":61,"x_max":1186,"o":"m 382 1088 l 631 417 l 861 1088 l 1186 1088 q 1133 1033 1143 1060 q 1124 949 1124 1006 q 1124 940 1124 943 q 1124 932 1124 936 l 1124 156 q 1133 54 1124 76 q 1186 0 1146 26 l 824 0 q 883 86 878 36 q 885 156 885 99 l 885 639 l 686 0 l 538 0 l 313 644 l 313 156 q 322 54 313 76 q 375 0 335 26 l 61 0 q 114 55 104 28 q 124 139 124 82 q 124 148 124 144 q 124 156 124 151 l 124 932 q 114 1033 124 1011 q 61 1088 101 1061 l 382 1088 z "},"N":{"ha":971,"x_min":61,"x_max":958,"o":"m 707 932 q 697 1033 707 1011 q 644 1088 685 1061 l 958 1088 q 906 1033 915 1060 q 896 949 896 1006 q 896 940 896 943 q 896 932 896 936 l 896 0 l 740 0 l 313 707 l 313 156 q 322 54 313 76 q 375 0 335 26 l 61 0 q 114 55 104 28 q 124 139 124 82 q 124 148 124 144 q 124 156 124 151 l 124 932 q 114 1033 124 1011 q 61 1088 101 1061 l 328 1088 l 707 457 l 707 932 z "},"O":{"ha":997,"x_min":61,"x_max":988,"o":"m 464 1115 q 676 1098 567 1128 q 861 976 785 1068 q 959 764 931 894 q 982 521 988 633 q 951 321 976 408 q 650 -8 878 63 q 526 -25 596 -24 q 373 -4 456 -26 q 233 67 290 18 q 136 198 175 115 q 85 362 97 281 q 67 525 72 443 q 71 657 61 607 q 145 896 85 778 q 318 1071 206 1014 q 464 1115 389 1106 m 414 892 q 339 725 361 838 q 319 517 317 613 q 333 349 321 421 q 351 274 342 301 q 384 212 360 246 q 447 160 408 178 q 519 146 478 144 q 593 165 561 147 q 717 450 694 222 q 722 591 719 508 q 700 771 724 674 q 628 911 676 868 q 560 940 601 933 q 494 938 518 946 q 414 892 450 928 z "},"P":{"ha":868,"x_min":61,"x_max":857,"o":"m 518 621 q 606 738 596 650 q 553 889 618 835 q 417 917 522 917 l 361 917 l 361 613 q 518 621 460 600 m 449 1088 q 465 1088 454 1088 q 537 1087 511 1088 q 610 1079 563 1086 q 688 1059 657 1072 q 756 1018 719 1046 q 817 951 792 990 q 857 782 857 885 q 817 603 857 679 q 422 428 719 428 l 361 428 l 361 156 q 371 54 361 76 q 424 0 383 26 l 61 0 q 114 55 104 28 q 124 139 124 82 q 124 148 124 144 q 124 156 124 151 l 124 932 q 114 1033 124 1011 q 61 1088 101 1061 l 449 1088 z "},"Q":{"ha":997,"x_min":61,"x_max":1154,"o":"m 800 54 q 1017 -112 900 -40 q 1060 -136 1044 -129 q 1101 -144 1076 -143 q 1154 -131 1126 -144 q 1018 -235 1115 -211 q 867 -226 940 -254 q 706 -133 794 -199 l 674 -110 q 554 -24 558 -26 q 165 147 288 -37 q 83 367 106 236 q 74 623 61 499 q 126 844 88 747 q 414 1104 207 1051 q 538 1119 471 1115 q 685 1097 604 1122 q 824 1019 767 1071 q 925 881 886 963 q 975 722 964 800 q 989 564 986 644 q 981 426 992 483 q 932 235 969 319 q 800 54 894 150 m 446 917 q 328 553 333 847 q 330 441 326 500 q 360 292 333 382 q 436 168 388 203 q 510 142 468 146 q 581 151 553 139 q 708 328 674 185 q 728 500 724 394 q 713 724 732 606 q 646 893 694 843 q 577 934 617 924 q 503 939 538 944 q 446 917 469 932 z "},"R":{"ha":979,"x_min":61,"x_max":1000,"o":"m 361 608 q 488 613 469 608 q 586 707 560 629 q 595 794 599 738 q 568 876 592 850 q 553 892 561 885 q 535 903 546 899 q 519 911 525 908 q 498 917 513 914 q 477 920 483 919 q 452 922 471 921 q 426 922 433 922 q 394 922 418 922 q 361 922 369 922 l 361 608 m 461 1088 q 517 1087 501 1088 q 578 1083 532 1086 q 650 1071 624 1081 q 713 1045 676 1061 q 777 1001 750 1029 q 824 936 804 974 q 851 761 858 869 q 792 583 844 653 q 724 521 757 542 l 910 119 q 1000 0 953 21 l 868 0 q 843 0 860 0 q 763 1 785 0 q 713 19 740 3 q 670 63 686 35 q 625 150 654 90 l 556 294 q 507 388 525 364 q 456 422 489 413 q 361 428 436 428 l 361 156 q 371 54 361 76 q 424 0 383 26 l 61 0 q 114 55 104 28 q 124 139 124 82 q 124 148 124 144 q 124 156 124 151 l 124 932 q 114 1033 124 1011 q 61 1088 101 1061 l 461 1088 z "},"S":{"ha":775,"x_min":60,"x_max":774,"o":"m 696 1101 l 696 828 q 595 917 656 888 q 476 949 535 947 q 325 892 371 953 q 301 837 307 871 q 303 776 296 803 q 349 711 317 733 q 447 665 382 689 l 501 646 q 685 544 619 603 q 764 382 750 486 q 740 210 774 304 q 626 56 706 115 q 378 -24 524 -18 q 266 -18 318 -26 q 192 -1 214 -10 q 129 24 169 7 q 81 21 97 35 l 81 331 q 181 204 126 243 q 315 154 235 165 q 503 206 442 136 q 526 313 542 254 q 470 385 517 353 q 379 432 424 417 l 338 446 q 163 535 228 482 q 76 690 97 589 q 83 863 60 768 q 172 1022 106 957 q 274 1091 218 1067 q 391 1118 329 1115 q 498 1116 453 1121 q 604 1100 543 1111 l 625 1096 q 696 1101 664 1089 z "},"T":{"ha":872,"x_min":17,"x_max":875,"o":"m 344 913 l 149 913 q 138 913 147 913 q 124 913 129 913 q 108 912 119 913 q 90 909 97 911 q 71 903 82 907 q 51 895 60 900 q 33 883 43 890 q 17 865 24 875 l 63 1088 l 875 1088 l 842 854 q 740 913 811 913 l 582 913 l 582 156 q 592 54 582 76 q 644 0 604 26 l 282 0 q 335 55 325 28 q 344 139 344 82 q 344 148 344 144 q 344 156 344 151 l 344 913 z "},"U":{"ha":976,"x_min":61,"x_max":969,"o":"m 718 932 q 708 1033 718 1011 q 656 1088 696 1061 l 969 1088 q 917 1033 926 1060 q 907 949 907 1006 q 907 940 907 943 q 907 932 907 936 l 907 375 q 906 317 907 332 q 903 258 906 303 q 891 190 900 214 q 867 130 882 165 q 825 68 851 94 q 763 21 799 42 q 520 -24 682 -24 q 265 25 358 -25 q 224 55 243 39 q 190 86 204 71 q 166 124 176 101 q 149 160 156 146 q 136 201 142 175 q 128 240 131 228 q 125 282 126 253 q 124 320 124 311 q 124 359 124 329 q 124 394 124 389 l 124 932 q 114 1033 124 1011 q 61 1088 101 1061 l 424 1088 q 371 1033 381 1060 q 361 949 361 1006 q 361 940 361 943 q 361 932 361 936 l 361 418 q 363 337 361 367 q 373 269 365 307 q 399 208 381 232 q 449 168 418 183 q 542 149 482 149 q 640 174 601 150 q 694 238 676 196 q 715 315 713 281 q 718 410 718 349 l 718 932 z "},"V":{"ha":1004,"x_min":44,"x_max":1017,"o":"m 438 1088 q 395 1031 406 1065 q 388 969 385 996 q 403 903 392 942 l 539 406 l 689 886 q 703 935 699 918 q 710 983 707 951 q 701 1040 713 1015 q 665 1088 690 1065 l 1017 1088 q 943 1019 964 1051 q 901 919 922 988 l 613 0 l 421 0 l 143 919 q 123 983 131 961 q 94 1038 115 1006 q 44 1088 72 1071 l 438 1088 z "},"W":{"ha":1394,"x_min":49,"x_max":1408,"o":"m 49 1088 l 428 1088 q 383 1019 394 1060 q 376 951 372 978 q 390 881 379 925 q 393 869 392 874 l 493 465 l 589 817 q 605 882 600 857 q 609 945 610 907 q 590 1019 608 983 q 535 1088 571 1054 l 911 1088 q 885 1061 896 1075 q 869 1035 875 1047 q 860 1007 863 1024 q 856 981 857 990 q 858 953 856 971 q 861 927 860 935 q 867 901 863 919 q 872 879 871 883 l 975 465 l 1088 868 q 1102 924 1097 903 q 1110 982 1107 946 q 1100 1044 1113 1018 q 1061 1088 1088 1071 l 1408 1088 q 1359 1044 1381 1075 q 1330 990 1338 1013 q 1310 928 1322 968 l 1044 0 l 853 0 l 713 514 l 563 0 l 368 0 l 126 954 q 99 1032 114 1004 q 49 1088 83 1060 z "},"X":{"ha":1022,"x_min":32,"x_max":1039,"o":"m 1007 1088 q 944 1044 965 1065 q 889 969 922 1024 l 663 593 l 933 114 q 1039 0 983 21 l 618 0 q 646 14 636 7 q 665 35 656 21 q 671 74 675 49 q 649 132 667 99 l 521 360 l 411 178 q 381 121 390 143 q 373 64 372 99 q 399 0 374 29 l 32 0 q 193 185 110 43 l 414 547 l 181 957 q 129 1040 153 1010 q 72 1088 106 1069 l 479 1088 q 435 1038 444 1071 q 442 982 426 1006 l 554 783 l 647 935 q 676 1043 686 1000 q 636 1088 668 1071 l 1007 1088 z "},"Y":{"ha":958,"x_min":40,"x_max":969,"o":"m 386 346 q 379 490 386 458 q 318 625 372 521 l 140 969 q 40 1088 100 1047 l 439 1088 q 410 1023 411 1061 q 419 960 410 985 q 451 886 428 935 l 539 704 l 671 982 q 674 1041 686 1013 q 628 1088 663 1069 l 969 1088 q 869 974 915 1067 l 681 590 q 628 476 633 496 q 624 354 624 456 l 624 158 q 633 56 624 79 q 686 0 649 25 l 324 0 q 376 55 367 28 q 386 139 386 82 q 386 148 386 144 q 386 156 386 151 l 386 346 z "},"Z":{"ha":800,"x_min":65,"x_max":790,"o":"m 776 1088 l 394 168 l 583 168 q 663 169 638 168 q 724 183 688 171 q 790 222 761 196 l 790 0 l 65 0 l 457 931 l 278 931 q 255 931 276 931 q 229 931 233 931 q 206 930 225 931 q 178 927 186 929 q 154 922 171 925 q 128 913 138 918 q 107 901 119 908 q 84 885 94 894 q 65 863 74 875 l 65 1088 l 776 1088 z "},"[":{"ha":454,"x_min":93,"x_max":424,"o":"m 271 1018 l 271 -111 l 424 -111 l 424 -183 l 93 -183 l 93 1088 l 424 1088 l 424 1018 l 271 1018 z "},"\\":{"ha":872,"x_min":71,"x_max":869,"o":"m 869 -39 l 779 -93 l 71 1097 l 161 1154 l 869 -39 z "},"]":{"ha":454,"x_min":85,"x_max":414,"o":"m 85 1088 l 414 1088 l 414 -182 l 85 -182 l 85 -110 l 235 -110 l 235 1018 l 85 1018 l 85 1088 z "},"^":{"ha":494,"x_min":54,"x_max":483,"o":"m 268 1088 q 283 1088 274 1088 q 294 1088 292 1088 q 303 1087 297 1088 q 313 1085 310 1086 q 319 1081 315 1083 q 327 1075 324 1079 q 335 1066 331 1071 q 343 1053 339 1061 l 464 869 q 478 832 483 838 q 443 840 469 824 l 269 957 l 94 840 q 60 832 68 824 q 74 869 54 838 l 193 1053 q 203 1067 199 1061 q 213 1077 207 1074 q 221 1083 218 1081 q 231 1087 224 1086 q 240 1088 238 1088 q 253 1088 242 1088 q 268 1088 264 1088 z "},"_":{"ha":814,"x_min":3,"x_max":822,"o":"m 822 -193 l 3 -193 l 3 -99 l 822 -99 l 822 -193 z "},"`":{"ha":338,"x_min":83,"x_max":353,"o":"m 96 1088 l 222 1088 q 256 1079 249 1088 q 281 1025 264 1071 l 338 868 q 340 818 353 824 q 299 844 328 813 l 93 1060 q 84 1076 85 1067 q 96 1088 83 1086 z "},"a":{"ha":731,"x_min":65,"x_max":751,"o":"m 751 115 l 656 -7 q 476 56 550 -17 q 222 11 356 -28 q 79 133 117 43 q 66 217 65 165 q 86 304 67 268 q 190 403 121 369 q 335 442 260 436 l 353 443 q 415 452 393 446 q 442 465 436 458 q 454 485 447 471 q 457 516 457 492 q 454 547 457 540 q 378 597 440 585 q 247 589 322 607 q 114 528 172 571 l 126 711 l 181 726 q 313 749 243 743 q 462 742 383 756 q 586 689 540 728 q 610 663 600 678 q 628 635 621 647 q 640 602 635 622 q 647 571 644 582 q 651 536 650 560 q 653 505 653 513 q 653 472 653 497 q 653 444 653 447 l 653 272 q 654 201 653 221 q 664 162 656 182 q 690 131 672 142 q 751 115 710 119 m 317 290 q 283 206 276 256 q 326 150 289 167 q 411 157 368 131 q 434 173 425 165 q 449 190 443 181 q 456 211 454 200 q 458 238 457 222 q 458 274 458 254 q 458 322 458 294 l 449 322 q 317 290 354 322 z "},"b":{"ha":751,"x_min":60,"x_max":733,"o":"m 318 415 l 318 210 q 347 143 318 160 q 428 135 386 119 q 478 175 464 147 q 503 250 493 203 q 511 416 517 290 q 468 581 506 542 q 390 604 433 615 q 367 594 378 601 q 349 577 356 588 q 336 557 342 567 q 327 531 331 547 q 322 506 324 515 q 319 478 319 496 q 318 454 318 461 q 318 432 318 447 q 318 415 318 417 m 124 943 q 123 974 124 965 q 117 1000 122 983 q 97 1026 111 1017 q 60 1043 83 1036 l 318 1111 l 318 725 q 464 750 383 753 q 601 706 544 747 q 732 389 729 615 q 700 180 733 265 q 576 35 667 94 q 236 32 451 -50 q 124 1 169 57 l 124 943 z "},"c":{"ha":647,"x_min":65,"x_max":633,"o":"m 633 733 l 633 490 q 451 603 563 608 q 313 521 357 597 q 283 370 285 472 q 304 219 281 268 q 435 133 343 142 q 592 207 529 126 q 633 268 628 258 l 633 150 q 631 107 633 122 q 618 72 629 92 q 583 35 607 51 q 427 -8 531 -6 q 272 13 324 -11 q 75 247 113 72 q 66 379 65 310 q 94 526 67 449 q 172 653 122 603 q 521 739 307 788 q 547 731 531 736 q 573 723 563 725 q 599 722 583 721 q 633 733 615 724 z "},"d":{"ha":757,"x_min":54,"x_max":732,"o":"m 303 544 q 277 369 278 501 q 294 200 276 236 q 358 139 314 150 q 438 153 401 126 q 452 167 446 158 q 463 183 458 175 q 469 203 467 192 q 474 224 472 215 q 476 246 475 232 q 476 265 476 260 q 476 284 476 271 q 476 300 476 297 l 476 531 q 450 596 476 578 q 396 608 424 610 q 347 593 368 606 q 303 544 324 579 m 672 201 q 672 188 672 200 q 672 172 672 175 q 673 156 672 168 q 674 140 674 144 q 677 124 675 135 q 683 108 679 114 q 690 93 686 103 q 701 78 694 83 q 715 65 707 72 q 732 51 722 57 l 519 -8 l 492 39 q 218 19 349 -44 q 65 279 88 86 q 83 497 54 365 q 190 694 111 628 q 332 748 243 738 q 478 739 421 758 l 478 943 q 477 974 478 965 q 471 1000 476 983 q 451 1026 465 1017 q 414 1043 438 1036 l 672 1111 l 672 201 z "},"e":{"ha":699,"x_min":63,"x_max":688,"o":"m 665 272 l 665 222 q 665 194 665 215 q 665 167 665 174 q 664 144 665 161 q 660 121 663 128 q 654 101 658 114 q 643 79 650 88 q 626 60 636 71 q 604 42 617 50 q 433 -8 540 -3 q 261 17 325 -12 q 79 254 115 76 q 83 469 63 344 q 174 664 103 594 q 315 742 235 724 q 468 744 396 760 q 656 582 600 715 q 682 454 676 532 q 678 368 688 376 q 583 356 669 356 q 573 356 576 356 q 563 356 569 356 q 551 356 557 356 l 286 356 q 291 281 285 329 q 308 210 297 232 q 406 135 340 143 q 624 217 531 117 q 665 272 646 240 m 478 532 q 449 588 474 565 q 357 601 413 622 q 292 501 308 583 q 300 486 292 486 l 464 486 q 478 495 475 486 q 478 532 481 504 z "},"f":{"ha":403,"x_min":0,"x_max":547,"o":"m 126 596 l 0 596 l 57 735 l 124 735 q 124 784 124 749 q 124 831 124 819 q 127 871 124 843 q 137 913 131 899 q 155 950 143 926 q 184 990 167 974 q 228 1030 201 1007 q 289 1075 254 1053 q 483 1093 375 1133 q 543 1047 536 1074 q 504 971 547 1028 q 467 939 483 946 q 426 938 451 932 q 402 944 417 940 q 381 949 388 947 q 365 953 374 951 q 351 955 356 954 q 341 955 346 956 q 333 952 336 954 q 326 946 329 950 q 321 860 321 938 l 321 735 l 489 735 l 425 639 q 417 627 422 635 q 410 617 413 619 q 405 610 408 615 q 399 604 401 606 q 393 601 397 603 q 384 598 389 599 q 374 597 379 597 q 360 596 368 596 l 321 596 l 321 132 q 322 81 321 99 q 337 40 324 64 q 378 0 350 15 l 69 0 q 110 40 97 15 q 125 81 124 64 q 126 132 126 99 l 126 596 z "},"g":{"ha":732,"x_min":43,"x_max":744,"o":"m 744 738 q 730 694 735 708 q 714 656 725 679 q 692 622 703 633 q 667 602 682 611 q 632 594 651 593 l 624 594 q 632 489 632 543 q 609 379 632 435 q 543 290 586 324 q 407 236 490 247 q 310 231 369 232 q 274 207 274 231 q 350 183 274 183 l 407 182 q 699 67 633 178 q 719 -10 718 35 q 701 -93 719 -54 q 476 -242 650 -208 q 363 -251 432 -250 q 213 -236 293 -253 q 99 -185 133 -219 q 56 -56 43 -133 q 78 3 61 -21 q 144 65 96 26 q 97 126 111 88 q 100 203 82 164 q 178 286 118 236 q 104 543 79 390 q 213 718 124 661 q 494 740 299 771 l 518 736 q 669 731 574 726 q 744 738 714 733 m 303 435 q 350 367 313 381 q 404 378 381 357 q 437 450 431 400 q 438 535 443 500 q 394 617 431 599 q 340 613 367 631 q 303 435 279 576 m 242 -29 q 261 -93 235 -69 q 348 -122 288 -117 q 435 -118 408 -126 q 514 -72 497 -108 q 513 -31 524 -49 q 443 8 494 -3 q 292 26 392 18 q 242 -29 249 15 z "},"h":{"ha":783,"x_min":64,"x_max":761,"o":"m 704 132 q 706 81 704 99 q 720 40 707 64 q 761 0 733 15 l 453 0 q 494 40 481 15 q 508 81 507 64 q 510 132 510 99 l 510 403 q 510 430 510 410 q 510 458 510 450 q 509 483 510 465 q 506 508 508 500 q 501 530 504 517 q 492 551 497 543 q 480 566 488 558 q 463 579 472 574 q 413 588 442 589 q 365 574 385 586 q 350 559 357 568 q 338 542 343 550 q 331 520 333 533 q 326 499 328 507 q 323 475 324 490 q 322 454 322 460 q 322 434 322 449 q 322 418 322 419 l 322 132 q 324 81 322 99 q 338 40 325 64 q 379 0 351 15 l 71 0 q 112 40 99 15 q 126 81 125 64 q 128 132 128 99 l 128 943 q 127 974 128 965 q 121 1000 126 983 q 101 1026 115 1017 q 64 1043 88 1036 l 322 1111 l 322 711 q 478 751 385 749 q 633 713 571 754 q 659 688 647 703 q 678 661 671 674 q 690 627 685 649 q 699 595 696 606 q 703 559 701 585 q 704 527 704 533 q 704 494 704 521 l 704 468 l 704 132 z "},"i":{"ha":396,"x_min":60,"x_max":375,"o":"m 318 132 q 319 81 318 99 q 334 40 321 64 q 375 0 347 15 l 67 0 q 108 40 94 15 q 122 81 121 64 q 124 132 124 99 l 124 575 q 123 606 124 597 q 117 632 122 615 q 97 658 111 649 q 60 675 83 668 l 318 743 l 318 132 m 122 874 q 106 890 122 874 q 90 951 90 906 q 122 1029 90 997 q 199 1061 154 1061 q 277 1029 244 1061 q 310 951 310 997 q 277 874 310 906 q 199 843 244 843 q 122 874 154 843 z "},"j":{"ha":396,"x_min":-69,"x_max":318,"o":"m 121 874 q 105 890 121 874 q 89 951 89 906 q 121 1029 89 997 q 197 1061 153 1061 q 276 1029 243 1061 q 308 951 308 997 q 276 874 308 906 q 197 843 243 843 q 121 874 153 843 m 124 575 q 123 606 124 597 q 117 632 122 615 q 97 658 111 649 q 60 675 83 668 l 318 743 l 318 128 q 317 56 318 81 q 308 -19 317 31 q 285 -103 300 -69 q 238 -178 269 -137 q 161 -251 207 -219 q 84 -285 119 -281 q -1 -269 49 -289 q -65 -219 -58 -249 q -61 -174 -69 -206 q -46 -131 -53 -143 q 7 -114 -31 -101 q 101 -118 81 -135 q 109 -110 106 -114 q 115 -100 113 -106 q 119 -89 117 -94 q 122 -74 121 -83 q 123 -58 122 -65 q 124 -38 124 -51 q 124 -15 124 -25 q 124 13 124 -6 q 124 43 124 31 l 124 575 z "},"k":{"ha":796,"x_min":60,"x_max":792,"o":"m 318 132 q 319 81 318 99 q 334 40 321 64 q 375 0 347 15 l 67 0 q 108 40 94 15 q 122 81 121 64 q 124 132 124 99 l 124 943 q 123 974 124 965 q 117 1000 122 983 q 97 1026 111 1017 q 60 1043 83 1036 l 318 1111 l 318 481 l 458 632 q 489 684 489 661 q 456 735 489 707 l 774 735 q 689 664 742 721 l 474 435 l 731 63 q 792 0 749 38 l 461 0 q 486 39 486 18 q 465 89 486 60 l 318 299 l 318 132 z "},"l":{"ha":396,"x_min":60,"x_max":375,"o":"m 318 132 q 319 81 318 99 q 334 40 321 64 q 375 0 347 15 l 67 0 q 108 40 94 15 q 122 81 121 64 q 124 132 124 99 l 124 943 q 123 974 124 965 q 117 1000 122 983 q 97 1026 111 1017 q 60 1043 83 1036 l 318 1111 l 318 132 z "},"m":{"ha":1118,"x_min":65,"x_max":1103,"o":"m 1046 132 q 1047 81 1046 99 q 1062 40 1049 64 q 1103 0 1075 15 l 794 0 q 835 40 822 15 q 850 81 849 64 q 851 132 851 99 l 851 419 q 851 447 851 429 q 851 473 851 465 q 851 494 851 481 q 850 515 851 508 q 847 533 849 522 q 842 549 846 543 q 835 561 839 554 q 825 573 831 568 q 813 582 819 578 q 769 590 799 590 q 724 578 740 590 q 692 537 701 565 q 683 492 683 508 q 682 417 682 475 l 682 132 q 683 81 682 99 q 698 40 685 64 q 739 0 711 15 l 431 0 q 472 40 458 15 q 486 81 485 64 q 488 132 488 99 l 488 419 q 488 447 488 429 q 488 473 488 465 q 488 494 488 481 q 486 515 488 508 q 483 533 485 522 q 478 549 482 543 q 471 561 475 554 q 461 573 467 568 q 449 582 456 578 q 406 590 435 590 q 360 578 376 590 q 328 537 338 565 q 319 492 319 508 q 318 417 318 475 l 318 132 q 319 81 318 99 q 334 40 321 64 q 375 0 347 15 l 67 0 q 108 40 94 15 q 122 81 121 64 q 124 132 124 99 l 124 538 q 124 554 124 543 q 123 599 124 585 q 117 633 122 614 q 99 665 111 651 q 65 693 88 679 l 271 743 l 292 693 q 643 693 490 806 q 803 749 707 740 q 968 718 900 758 q 991 701 981 711 q 1009 681 1001 690 q 1022 658 1017 672 q 1032 634 1028 643 q 1039 608 1036 625 q 1043 583 1042 590 q 1045 556 1044 575 q 1046 531 1046 536 q 1046 506 1046 526 q 1046 485 1046 486 l 1046 132 z "},"n":{"ha":776,"x_min":65,"x_max":760,"o":"m 626 714 q 651 695 640 706 q 670 672 663 685 q 684 647 678 658 q 694 618 690 636 q 699 591 697 600 q 702 561 701 582 q 703 534 703 540 q 703 506 703 528 q 703 482 703 485 l 703 132 q 704 81 703 99 q 719 40 706 64 q 760 0 732 15 l 451 0 q 492 40 479 15 q 507 81 506 64 q 508 132 508 99 l 508 417 q 499 550 508 524 q 468 586 488 574 q 417 596 450 596 q 361 579 385 596 q 329 536 339 564 q 319 489 319 508 q 318 414 318 469 l 318 132 q 319 81 318 99 q 334 40 321 64 q 375 0 347 15 l 67 0 q 108 40 94 15 q 122 81 121 64 q 124 132 124 99 l 124 535 q 124 551 124 540 q 123 597 124 582 q 117 630 122 611 q 99 663 111 649 q 65 690 88 676 l 271 743 l 292 690 q 464 751 365 746 q 626 714 563 756 z "},"o":{"ha":754,"x_min":60,"x_max":739,"o":"m 343 746 q 503 739 418 758 q 650 653 588 719 q 716 525 693 607 q 738 372 739 443 q 726 243 736 300 q 525 11 686 68 q 361 -7 469 -14 q 192 46 253 0 q 88 206 117 104 q 61 401 60 307 q 102 569 63 482 q 229 707 142 656 q 343 746 282 738 m 297 529 q 278 349 274 482 q 318 171 283 215 q 417 128 356 122 q 506 200 476 136 q 519 375 524 236 q 483 558 515 514 q 386 603 446 611 q 297 529 324 597 z "},"p":{"ha":754,"x_min":65,"x_max":739,"o":"m 318 406 l 318 288 q 333 165 318 190 q 347 151 339 156 q 443 149 399 124 q 485 193 469 164 q 506 256 501 222 q 512 329 510 290 q 511 400 514 368 q 508 458 510 438 q 500 507 506 478 q 481 555 494 536 q 444 585 467 574 q 358 576 400 607 q 318 406 318 546 m 318 -157 q 319 -207 318 -190 q 334 -248 321 -224 q 375 -287 347 -272 l 67 -287 q 108 -248 94 -272 q 122 -207 121 -224 q 124 -157 124 -190 l 124 540 q 124 557 124 546 q 123 602 124 588 q 117 635 122 617 q 99 668 111 654 q 65 696 88 682 l 271 743 l 292 700 q 575 722 446 790 q 643 673 615 701 q 687 610 671 644 q 711 547 703 575 q 726 478 719 518 q 715 267 739 399 q 621 68 692 136 q 512 -1 565 14 q 386 1 458 -17 l 318 19 l 318 -157 z "},"q":{"ha":743,"x_min":53,"x_max":711,"o":"m 493 708 l 501 735 l 711 735 q 675 688 686 714 q 663 649 664 663 q 663 593 663 635 l 663 -108 q 664 -165 663 -147 q 675 -203 665 -183 q 706 -237 685 -224 l 468 -293 l 468 14 q 370 -7 421 -1 q 264 -1 319 -12 q 172 42 208 10 q 75 236 97 106 q 65 458 53 367 q 240 731 94 668 q 493 708 357 781 m 281 219 q 349 131 301 149 q 438 142 393 114 q 450 154 444 147 q 459 172 456 161 q 465 190 463 182 q 467 213 467 199 q 468 234 468 226 q 468 258 468 242 q 468 279 468 275 l 468 424 q 468 442 468 431 q 467 509 468 488 q 456 556 465 531 q 425 596 446 582 q 349 604 390 621 q 278 496 297 583 q 265 333 260 408 q 281 219 269 258 z "},"r":{"ha":549,"x_min":57,"x_max":576,"o":"m 318 132 q 319 81 318 99 q 334 40 321 64 q 375 0 347 15 l 67 0 q 108 40 94 15 q 122 81 121 64 q 124 132 124 99 l 124 542 q 122 581 124 568 q 116 615 121 593 q 96 653 111 638 q 57 683 81 669 l 264 743 q 296 657 282 707 q 328 693 319 683 q 355 719 338 703 q 382 739 372 735 q 407 748 392 743 q 438 752 422 753 q 472 746 453 751 q 532 720 497 739 q 572 682 567 701 q 521 571 576 665 q 497 548 507 550 q 469 556 486 546 q 451 565 465 557 q 430 575 438 572 q 410 581 422 578 q 385 582 397 585 q 363 572 374 579 q 348 560 354 567 q 337 544 342 554 q 328 527 332 535 q 323 506 325 519 q 320 485 321 493 q 319 463 319 478 q 318 440 318 447 q 318 415 318 433 q 318 392 318 397 l 318 132 z "},"s":{"ha":650,"x_min":61,"x_max":635,"o":"m 603 717 l 603 519 q 479 589 560 563 q 354 607 399 615 q 288 568 306 599 q 282 544 282 560 q 288 522 282 529 q 392 454 315 474 l 417 447 q 481 428 461 435 q 533 406 501 421 q 585 367 565 390 q 618 310 604 343 q 631 222 635 274 q 600 128 626 171 q 392 -4 535 15 q 226 1 322 -14 q 86 57 131 15 q 77 69 81 63 q 72 85 74 75 q 68 101 69 94 q 66 124 67 108 q 65 147 65 139 q 65 176 65 156 q 65 207 65 197 l 65 256 q 321 135 178 126 q 403 174 381 140 q 406 214 415 193 q 299 268 392 244 l 279 274 q 78 442 108 324 q 76 554 61 489 q 142 668 92 619 q 226 728 182 707 q 319 749 269 749 q 403 746 369 750 q 490 729 438 742 l 529 719 q 603 717 567 710 z "},"t":{"ha":514,"x_min":19,"x_max":521,"o":"m 328 897 l 328 735 l 517 735 l 446 585 l 328 585 l 328 335 q 339 199 328 229 q 382 150 351 164 q 521 138 435 124 l 446 4 q 396 -6 428 -3 q 185 43 253 -19 q 144 118 157 71 q 129 191 131 165 q 128 268 128 217 l 128 585 l 19 585 l 328 897 z "},"u":{"ha":778,"x_min":64,"x_max":768,"o":"m 508 575 q 508 606 508 597 q 501 632 507 615 q 482 658 496 649 q 444 675 468 668 l 703 743 l 703 208 q 703 189 703 206 q 703 167 703 172 q 704 147 703 163 q 708 124 706 131 q 715 103 710 117 q 726 82 719 90 q 744 65 733 74 q 768 49 754 56 l 557 1 q 526 56 540 15 q 378 -6 457 4 q 226 18 300 -17 q 198 37 211 26 q 175 56 185 47 q 158 81 165 65 q 145 105 150 97 q 137 133 140 113 q 131 158 133 153 q 128 188 129 164 q 128 215 128 213 q 128 244 128 218 l 128 271 l 128 575 q 127 606 128 597 q 121 632 126 615 q 101 658 115 649 q 64 675 88 668 l 322 743 l 322 333 q 329 196 322 226 q 371 146 336 165 q 464 153 414 124 q 483 167 475 158 q 495 189 490 176 q 503 210 500 201 q 507 238 506 219 q 508 263 508 256 q 508 290 508 269 q 508 314 508 311 l 508 575 z "},"v":{"ha":735,"x_min":35,"x_max":743,"o":"m 743 735 q 681 644 697 703 l 488 0 l 333 0 l 113 606 q 103 629 110 611 q 95 653 97 647 q 87 672 93 658 q 76 692 81 686 q 66 708 72 699 q 52 723 60 717 q 35 735 44 729 l 340 735 q 312 681 318 715 q 319 608 306 647 l 424 325 l 517 632 q 517 685 525 663 q 476 735 510 707 l 743 735 z "},"w":{"ha":1049,"x_min":33,"x_max":1047,"o":"m 714 735 q 708 732 713 735 q 701 728 703 729 q 696 725 700 728 q 690 720 692 722 q 685 714 688 718 q 681 706 682 710 q 679 695 681 701 q 678 681 678 689 q 681 665 679 674 q 685 644 682 656 l 757 386 l 832 639 q 834 700 842 682 q 797 735 826 718 l 1047 735 q 1006 695 1018 717 q 979 628 993 674 l 794 0 l 657 0 l 547 393 l 435 0 l 285 0 l 110 610 q 92 665 97 650 q 72 699 86 681 q 33 735 58 717 l 333 735 q 310 692 315 715 q 309 651 306 669 q 326 585 313 633 q 332 564 331 571 l 386 374 l 454 604 q 463 674 468 643 q 422 735 457 704 l 714 735 z "},"x":{"ha":746,"x_min":28,"x_max":757,"o":"m 64 735 l 371 735 q 351 671 328 710 l 414 563 l 468 650 q 458 735 497 699 l 725 735 q 680 705 693 717 q 650 664 667 693 l 497 418 l 676 101 q 738 11 719 25 q 757 0 746 4 l 435 0 q 472 27 461 7 q 472 69 483 47 l 379 231 l 311 122 q 318 0 264 47 l 28 0 q 140 126 74 18 l 296 376 l 136 658 q 64 735 107 713 z "},"y":{"ha":739,"x_min":31,"x_max":739,"o":"m 351 735 q 311 636 292 701 l 417 308 l 503 589 q 481 735 532 682 l 739 735 q 704 699 717 719 q 679 639 692 679 l 438 -136 q 419 -195 426 -174 q 399 -234 411 -217 q 379 -258 386 -251 q 349 -270 372 -265 q 312 -275 326 -275 q 257 -275 297 -275 q 231 -275 240 -275 l 156 -275 q 225 -222 196 -265 q 288 -100 254 -179 q 308 -18 310 -43 q 286 72 307 7 q 278 96 281 88 l 96 640 q 31 735 74 706 l 351 735 z "},"z":{"ha":658,"x_min":53,"x_max":639,"o":"m 638 735 l 344 136 l 496 136 q 639 175 582 136 l 639 86 q 616 16 639 32 q 525 0 593 0 l 53 0 l 347 600 l 188 600 q 135 592 153 600 q 89 563 118 585 l 89 735 l 638 735 z "},"{":{"ha":715,"x_min":65,"x_max":693,"o":"m 693 1018 q 574 986 621 1010 q 536 962 553 975 q 508 939 519 949 q 490 912 497 929 q 478 887 482 894 q 472 857 474 879 q 469 829 469 835 q 469 797 469 824 q 469 768 469 771 l 469 692 q 456 569 469 619 q 422 486 443 518 q 359 432 401 454 q 274 399 317 410 q 158 374 232 388 q 386 301 317 350 q 445 222 425 272 q 467 142 465 171 q 469 65 469 113 l 469 -6 q 517 -192 472 -135 q 693 -265 561 -250 l 693 -336 q 446 -285 524 -325 q 390 -250 414 -268 q 352 -206 367 -232 q 329 -165 338 -181 q 317 -114 321 -150 q 312 -64 313 -78 q 310 -4 311 -50 l 310 92 q 253 268 310 219 q 65 332 197 317 l 65 413 q 78 415 69 414 q 221 460 179 433 q 235 469 228 464 q 288 533 269 494 q 310 597 307 571 q 313 667 313 624 l 313 756 q 314 794 313 767 q 316 832 315 822 q 319 864 317 842 q 325 898 321 886 q 336 927 329 910 q 353 959 343 944 q 378 989 364 974 q 525 1063 426 1039 q 693 1088 624 1086 l 693 1018 z "},"|":{"ha":274,"x_min":108,"x_max":215,"o":"m 215 -99 l 108 -99 l 108 1172 l 215 1172 l 215 -99 z "},"}":{"ha":715,"x_min":82,"x_max":710,"o":"m 82 1088 q 250 1063 151 1086 q 397 989 349 1039 q 426 952 414 972 q 444 920 438 932 q 454 880 450 908 q 459 844 458 851 q 461 799 460 838 q 463 756 463 761 l 463 667 q 465 597 463 624 q 486 533 468 571 q 539 469 504 494 q 554 459 546 464 q 569 451 563 454 q 585 443 575 447 q 601 437 596 439 q 618 431 606 435 q 634 427 631 428 q 652 424 638 426 q 669 420 667 421 q 690 416 672 419 q 710 413 708 413 l 710 332 q 522 268 578 317 q 465 92 465 219 l 465 -4 q 463 -64 464 -50 q 458 -114 463 -78 q 446 -165 454 -150 q 423 -206 438 -181 q 385 -250 408 -232 q 329 -285 361 -268 q 224 -320 276 -311 q 82 -336 172 -329 l 82 -265 q 258 -192 214 -250 q 306 -6 303 -135 l 306 65 q 308 142 306 113 q 330 222 310 171 q 389 301 350 272 q 617 374 460 351 q 501 399 543 388 q 416 432 458 410 q 353 486 374 454 q 319 569 332 518 q 306 692 306 619 l 306 768 q 306 794 306 774 q 306 822 306 815 q 304 847 306 829 q 300 874 303 865 q 292 897 297 882 q 280 922 288 913 q 261 943 272 931 q 235 966 250 956 q 200 986 219 976 q 82 1018 154 1010 l 82 1088 z "},"~":{"ha":568,"x_min":61,"x_max":557,"o":"m 63 878 q 74 946 67 921 q 103 1017 83 989 q 213 1079 147 1079 q 342 1033 260 1078 q 442 986 425 989 q 491 1007 468 982 q 543 1088 514 1032 q 554 1092 546 1097 l 557 1086 q 513 943 557 997 q 388 890 458 882 q 281 933 354 896 q 255 947 271 939 q 231 959 239 956 q 213 967 224 963 q 193 974 201 972 q 176 974 185 975 q 120 940 147 971 q 78 875 93 908 q 68 871 75 869 q 63 878 61 872 z "},"¢":{"ha":676,"x_min":74,"x_max":642,"o":"m 492 753 l 481 286 q 600 360 553 299 q 642 421 636 411 l 642 301 q 640 258 642 274 q 626 223 638 243 q 592 186 615 203 q 476 147 550 157 l 474 10 l 354 10 l 357 149 q 281 165 331 149 q 83 400 121 224 q 74 532 74 463 q 101 678 74 601 q 179 806 129 756 q 376 900 258 885 l 381 1038 l 500 1038 l 496 897 q 529 890 514 894 q 556 882 539 888 q 583 874 574 876 q 608 874 592 872 q 642 885 624 876 l 642 642 q 492 753 582 742 m 363 313 l 372 731 q 321 672 343 710 q 291 522 293 624 q 313 372 289 421 q 363 313 333 333 z "},"£":{"ha":800,"x_min":58,"x_max":793,"o":"m 678 1110 l 678 851 q 554 946 633 944 q 464 897 497 949 q 435 626 435 856 l 676 626 l 676 526 l 435 526 l 438 493 q 439 438 438 454 q 436 392 440 422 q 431 353 432 363 q 424 319 429 344 q 417 286 418 294 q 490 276 442 288 q 565 253 538 264 l 604 236 q 669 211 647 218 q 729 209 692 204 q 793 244 767 214 q 767 119 793 186 q 685 26 740 53 q 634 12 660 14 q 565 21 608 10 q 499 40 521 32 q 411 71 478 47 q 317 106 346 94 q 136 0 215 -8 q 79 38 99 6 q 82 128 58 74 q 144 206 99 167 q 185 233 161 221 l 244 258 q 235 304 240 278 q 225 351 229 331 q 217 396 221 372 l 200 524 l 76 524 l 76 626 l 188 626 q 303 1053 165 940 q 489 1114 379 1114 q 558 1108 514 1114 q 623 1101 601 1101 q 678 1110 644 1100 z "},"¨":{"ha":481,"x_min":63,"x_max":474,"o":"m 91 928 q 77 942 91 928 q 63 996 63 956 q 91 1064 63 1036 q 158 1092 119 1092 q 226 1063 197 1092 q 254 996 254 1035 q 226 928 254 957 q 158 900 197 900 q 91 928 119 900 m 308 928 q 294 942 308 928 q 281 996 281 956 q 308 1064 281 1036 q 376 1092 336 1092 q 445 1063 417 1092 q 474 996 474 1035 q 445 928 474 957 q 376 900 417 900 q 308 928 336 900 z "},"©":{"ha":351,"x_min":64,"x_max":340,"o":"m 267 990 l 246 990 q 185 1004 225 1018 q 151 951 151 992 q 174 896 151 913 q 253 917 214 864 l 274 910 q 196 865 247 865 q 154 879 174 865 q 129 911 135 893 q 138 993 114 958 q 208 1028 164 1029 q 242 1018 225 1028 q 267 990 257 1008 m 104 1047 q 124 1067 104 1047 q 201 1088 144 1088 q 299 1047 258 1088 q 340 949 340 1006 q 299 852 340 892 q 201 813 258 813 q 104 852 144 813 q 64 949 64 892 q 104 1047 64 1006 m 88 949 q 122 869 88 903 q 201 836 156 836 q 283 869 249 836 q 317 949 317 901 q 283 1030 317 996 q 201 1064 249 1064 q 122 1030 156 1064 q 88 949 88 996 z "},"®":{"ha":351,"x_min":68,"x_max":344,"o":"m 151 1024 q 172 1024 158 1024 q 193 1024 186 1024 q 211 1024 200 1024 q 228 1023 222 1024 q 242 1020 235 1022 q 255 1015 250 1018 q 264 1008 260 1013 q 274 976 275 994 q 238 943 268 943 l 272 874 l 253 874 l 203 939 l 176 939 l 176 874 l 151 874 l 151 1024 m 176 963 l 217 963 q 244 985 244 963 q 218 1006 244 1006 l 176 1006 l 176 963 m 108 1047 q 128 1067 108 1047 q 206 1088 149 1088 q 303 1047 263 1088 q 344 949 344 1006 q 303 852 344 892 q 206 813 263 813 q 108 852 149 813 q 68 949 68 892 q 108 1047 68 1006 m 92 949 q 126 869 92 903 q 206 836 160 836 q 287 869 253 836 q 321 949 321 901 q 287 1030 321 996 q 206 1064 253 1064 q 126 1030 160 1064 q 92 949 92 996 z "},"´":{"ha":338,"x_min":33,"x_max":303,"o":"m 293 1060 l 88 844 q 46 818 58 813 q 49 868 33 824 l 106 1025 q 130 1079 122 1071 q 164 1088 138 1088 l 290 1088 q 302 1076 303 1086 q 293 1060 301 1067 z "},"·":{"ha":290,"x_min":61,"x_max":288,"o":"m 156 -10 l 186 -10 l 169 -112 q 278 -201 267 -133 q 251 -301 288 -257 q 155 -356 213 -346 q 65 -346 97 -365 q 63 -337 61 -344 q 69 -332 65 -331 q 137 -331 104 -340 q 181 -297 169 -322 q 185 -240 197 -264 q 117 -194 169 -210 l 156 -10 z "},"À":{"ha":975,"x_min":44,"x_max":986,"o":"m 614 1088 q 640 960 614 1036 l 906 139 q 940 53 924 83 q 986 0 956 22 l 619 0 q 638 10 632 7 q 652 22 643 13 q 663 40 661 31 q 665 67 665 50 q 658 108 664 85 l 600 286 l 354 286 l 328 192 q 304 103 310 129 q 302 50 299 78 q 325 0 306 22 l 44 0 q 114 126 94 50 l 347 944 q 363 1022 364 988 q 329 1088 361 1056 l 614 1088 m 401 469 l 544 469 l 468 735 l 401 469 m 313 1479 l 440 1479 q 474 1471 467 1479 q 499 1417 482 1463 l 554 1260 q 557 1210 569 1215 q 517 1235 544 1204 l 310 1451 q 301 1468 301 1458 q 313 1479 300 1478 z "},"Á":{"ha":975,"x_min":44,"x_max":986,"o":"m 614 1088 q 640 960 614 1036 l 906 139 q 940 53 924 83 q 986 0 956 22 l 619 0 q 638 10 632 7 q 652 22 643 13 q 663 40 661 31 q 665 67 665 50 q 658 108 664 85 l 600 286 l 354 286 l 328 192 q 304 103 310 129 q 302 50 299 78 q 325 0 306 22 l 44 0 q 114 126 94 50 l 347 944 q 363 1022 364 988 q 329 1088 361 1056 l 614 1088 m 401 469 l 544 469 l 468 735 l 401 469 m 738 1451 l 531 1235 q 490 1210 503 1204 q 493 1260 478 1215 l 549 1417 q 573 1471 565 1463 q 607 1479 581 1479 l 735 1479 q 747 1468 747 1478 q 738 1451 746 1458 z "},"Â":{"ha":975,"x_min":44,"x_max":986,"o":"m 614 1088 q 640 960 614 1036 l 906 139 q 940 53 924 83 q 986 0 956 22 l 619 0 q 638 10 632 7 q 652 22 643 13 q 663 40 661 31 q 665 67 665 50 q 658 108 664 85 l 600 286 l 354 286 l 328 192 q 304 103 310 129 q 302 50 299 78 q 325 0 306 22 l 44 0 q 114 126 94 50 l 347 944 q 363 1022 364 988 q 329 1088 361 1056 l 614 1088 m 401 469 l 544 469 l 468 735 l 401 469 m 503 1468 q 517 1468 508 1468 q 528 1468 525 1468 q 538 1467 532 1468 q 546 1465 543 1467 q 553 1462 549 1464 q 560 1456 557 1460 q 568 1447 564 1451 q 576 1433 572 1442 l 697 1250 q 711 1213 717 1217 q 676 1219 703 1204 l 504 1338 l 328 1219 q 293 1213 301 1204 q 307 1250 288 1217 l 428 1433 q 438 1448 433 1442 q 447 1458 442 1454 q 456 1464 453 1461 q 465 1467 458 1467 q 474 1468 472 1468 q 488 1468 476 1468 q 503 1468 499 1468 z "},"Ã":{"ha":975,"x_min":44,"x_max":986,"o":"m 614 1088 q 640 960 614 1036 l 906 139 q 940 53 924 83 q 986 0 956 22 l 619 0 q 638 10 632 7 q 652 22 643 13 q 663 40 661 31 q 665 67 665 50 q 658 108 664 85 l 600 286 l 354 286 l 328 192 q 304 103 310 129 q 302 50 299 78 q 325 0 306 22 l 44 0 q 114 126 94 50 l 347 944 q 363 1022 364 988 q 329 1088 361 1056 l 614 1088 m 401 469 l 544 469 l 468 735 l 401 469 m 310 1215 q 321 1282 315 1260 q 350 1353 331 1325 q 461 1415 394 1415 q 590 1369 508 1414 q 689 1322 672 1325 q 738 1343 715 1318 q 792 1424 761 1368 q 803 1428 794 1433 q 806 1422 806 1425 q 760 1279 806 1333 q 635 1226 706 1218 q 528 1269 601 1232 q 503 1283 519 1274 q 480 1295 488 1292 q 461 1303 472 1299 q 442 1310 450 1308 q 425 1310 433 1311 q 367 1276 394 1307 q 325 1213 340 1246 q 315 1208 322 1207 q 310 1215 308 1210 z "},"Ä":{"ha":975,"x_min":49,"x_max":990,"o":"m 618 1088 q 644 960 618 1036 l 910 139 q 944 53 928 83 q 990 0 960 22 l 624 0 q 642 10 636 7 q 656 22 647 13 q 667 40 665 31 q 669 67 669 50 q 663 108 668 85 l 604 286 l 358 286 l 332 192 q 308 103 314 129 q 306 50 303 78 q 329 0 310 22 l 49 0 q 118 126 99 50 l 351 944 q 367 1022 368 988 q 333 1088 365 1056 l 618 1088 m 406 469 l 549 469 l 472 735 l 406 469 m 326 1236 q 313 1250 326 1236 q 299 1303 299 1264 q 327 1370 299 1342 q 394 1399 356 1399 q 463 1370 435 1399 q 492 1303 492 1342 q 463 1236 492 1264 q 394 1208 435 1208 q 326 1236 354 1208 m 518 1303 q 546 1371 518 1343 q 613 1399 574 1399 q 681 1370 653 1399 q 710 1303 710 1342 q 681 1236 710 1264 q 613 1208 653 1208 q 545 1236 572 1208 q 518 1303 518 1264 z "},"Å":{"ha":975,"x_min":44,"x_max":986,"o":"m 614 1088 q 640 960 614 1036 l 906 139 q 940 53 924 83 q 986 0 956 22 l 619 0 q 638 10 632 7 q 652 22 643 13 q 663 40 661 31 q 665 67 665 50 q 658 108 664 85 l 600 286 l 354 286 l 328 192 q 304 103 310 129 q 302 50 299 78 q 325 0 306 22 l 44 0 q 114 126 94 50 l 347 944 q 363 1022 364 988 q 329 1088 361 1056 l 614 1088 m 401 469 l 544 469 l 468 735 l 401 469 m 420 1238 q 405 1252 420 1238 q 390 1310 390 1267 q 420 1383 390 1353 q 493 1413 450 1413 q 565 1383 535 1413 q 594 1310 594 1353 q 565 1238 594 1267 q 493 1208 535 1208 q 420 1238 450 1208 m 457 1274 q 465 1267 457 1274 q 493 1260 472 1260 q 528 1274 514 1260 q 543 1311 543 1289 q 528 1347 543 1332 q 493 1363 514 1363 q 457 1347 472 1363 q 442 1311 442 1331 q 457 1274 442 1289 z "},"Ç":{"ha":871,"x_min":68,"x_max":860,"o":"m 531 -24 q 364 10 446 -24 q 82 374 132 104 q 71 507 68 422 q 86 678 74 592 q 138 852 99 764 q 236 996 176 940 q 356 1074 289 1044 q 486 1113 422 1104 q 606 1118 550 1121 q 707 1103 661 1115 q 778 1085 761 1089 q 817 1081 794 1081 q 860 1089 839 1081 l 860 792 q 740 900 815 857 q 596 943 664 943 q 388 825 463 943 q 326 557 329 729 q 374 286 322 385 q 556 154 433 167 q 692 173 619 147 q 817 263 765 199 q 860 322 847 300 l 860 78 q 564 -24 729 -24 l 547 -121 q 657 -210 646 -142 q 631 -310 667 -265 q 534 -364 592 -354 q 444 -354 476 -374 q 444 -343 438 -353 q 449 -340 446 -340 q 515 -340 483 -349 q 560 -306 547 -331 q 564 -249 576 -272 q 496 -203 549 -219 l 531 -24 z "},"È":{"ha":774,"x_min":61,"x_max":774,"o":"m 567 640 q 653 647 633 640 q 700 683 674 653 l 700 425 q 653 462 674 456 q 567 468 633 468 l 361 468 l 361 282 q 382 188 361 204 q 453 172 403 172 l 636 172 q 774 236 729 172 l 774 0 l 61 0 q 114 55 104 28 q 124 139 124 82 q 124 148 124 144 q 124 156 124 151 l 124 932 q 114 1033 124 1011 q 61 1088 101 1061 l 728 1088 l 728 876 q 712 890 719 883 q 694 900 704 896 q 678 908 685 904 q 660 913 672 911 q 644 915 649 914 q 625 917 639 917 q 608 918 611 918 q 589 918 606 918 q 571 918 572 918 l 361 918 l 361 640 l 567 640 m 218 1479 l 346 1479 q 380 1471 372 1479 q 404 1417 388 1463 l 461 1260 q 464 1210 476 1215 q 422 1235 453 1204 l 215 1451 q 206 1468 207 1458 q 218 1479 206 1478 z "},"É":{"ha":774,"x_min":61,"x_max":774,"o":"m 567 640 q 653 647 633 640 q 700 683 674 653 l 700 425 q 653 462 674 456 q 567 468 633 468 l 361 468 l 361 282 q 382 188 361 204 q 453 172 403 172 l 636 172 q 774 236 729 172 l 774 0 l 61 0 q 114 55 104 28 q 124 139 124 82 q 124 148 124 144 q 124 156 124 151 l 124 932 q 114 1033 124 1011 q 61 1088 101 1061 l 728 1088 l 728 876 q 712 890 719 883 q 694 900 704 896 q 678 908 685 904 q 660 913 672 911 q 644 915 649 914 q 625 917 639 917 q 608 918 611 918 q 589 918 606 918 q 571 918 572 918 l 361 918 l 361 640 l 567 640 m 678 1451 l 472 1235 q 431 1210 442 1204 q 433 1260 418 1215 l 490 1417 q 515 1471 507 1463 q 547 1479 522 1479 l 675 1479 q 687 1468 688 1478 q 678 1451 686 1458 z "},"Ê":{"ha":774,"x_min":61,"x_max":774,"o":"m 567 640 q 653 647 633 640 q 700 683 674 653 l 700 425 q 653 462 674 456 q 567 468 633 468 l 361 468 l 361 282 q 382 188 361 204 q 453 172 403 172 l 636 172 q 774 236 729 172 l 774 0 l 61 0 q 114 55 104 28 q 124 139 124 82 q 124 148 124 144 q 124 156 124 151 l 124 932 q 114 1033 124 1011 q 61 1088 101 1061 l 728 1088 l 728 876 q 712 890 719 883 q 694 900 704 896 q 678 908 685 904 q 660 913 672 911 q 644 915 649 914 q 625 917 639 917 q 608 918 611 918 q 589 918 606 918 q 571 918 572 918 l 361 918 l 361 640 l 567 640 m 464 1468 q 478 1468 469 1468 q 490 1468 488 1468 q 499 1467 493 1468 q 508 1465 506 1467 q 515 1462 511 1464 q 522 1456 519 1460 q 529 1447 525 1451 q 538 1433 533 1442 l 658 1250 q 672 1213 678 1217 q 638 1219 664 1204 l 465 1338 l 289 1219 q 254 1213 263 1204 q 268 1250 249 1217 l 389 1433 q 399 1448 394 1442 q 408 1458 403 1454 q 417 1464 414 1461 q 426 1467 419 1467 q 435 1468 433 1468 q 449 1468 438 1468 q 464 1468 460 1468 z "},"Ë":{"ha":774,"x_min":61,"x_max":774,"o":"m 567 640 q 653 647 633 640 q 700 683 674 653 l 700 425 q 653 462 674 456 q 567 468 633 468 l 361 468 l 361 282 q 382 188 361 204 q 453 172 403 172 l 636 172 q 774 236 729 172 l 774 0 l 61 0 q 114 55 104 28 q 124 139 124 82 q 124 148 124 144 q 124 156 124 151 l 124 932 q 114 1033 124 1011 q 61 1088 101 1061 l 728 1088 l 728 876 q 712 890 719 883 q 694 900 704 896 q 678 908 685 904 q 660 913 672 911 q 644 915 649 914 q 625 917 639 917 q 608 918 611 918 q 589 918 606 918 q 571 918 572 918 l 361 918 l 361 640 l 567 640 m 283 1236 q 269 1250 283 1236 q 256 1303 256 1264 q 283 1370 256 1342 q 351 1399 311 1399 q 420 1370 392 1399 q 449 1303 449 1342 q 420 1236 449 1264 q 351 1208 392 1208 q 283 1236 311 1208 m 503 1236 q 489 1250 503 1236 q 475 1303 475 1264 q 503 1370 475 1342 q 569 1399 531 1399 q 638 1370 610 1399 q 667 1303 667 1342 q 638 1236 667 1264 q 569 1208 610 1208 q 503 1236 531 1208 z "},"Ì":{"ha":428,"x_min":61,"x_max":424,"o":"m 361 156 q 371 54 361 76 q 424 0 383 26 l 61 0 q 114 55 104 28 q 124 139 124 82 q 124 148 124 144 q 124 156 124 151 l 124 932 q 114 1033 124 1011 q 61 1088 101 1061 l 424 1088 q 371 1033 381 1060 q 361 949 361 1006 q 361 940 361 943 q 361 932 361 936 l 361 156 m 81 1479 l 207 1479 q 241 1471 233 1479 q 265 1417 249 1463 l 322 1260 q 325 1210 338 1215 q 283 1235 314 1204 l 78 1451 q 69 1468 69 1458 q 81 1479 68 1478 z "},"Í":{"ha":428,"x_min":61,"x_max":501,"o":"m 361 156 q 371 54 361 76 q 424 0 383 26 l 61 0 q 114 55 104 28 q 124 139 124 82 q 124 148 124 144 q 124 156 124 151 l 124 932 q 114 1033 124 1011 q 61 1088 101 1061 l 424 1088 q 371 1033 381 1060 q 361 949 361 1006 q 361 940 361 943 q 361 932 361 936 l 361 156 m 492 1451 l 285 1235 q 243 1210 254 1204 q 246 1260 231 1215 l 303 1417 q 327 1471 319 1463 q 361 1479 335 1479 l 489 1479 q 501 1468 501 1478 q 492 1451 500 1458 z "},"Î":{"ha":428,"x_min":42,"x_max":471,"o":"m 361 156 q 371 54 361 76 q 424 0 383 26 l 61 0 q 114 55 104 28 q 124 139 124 82 q 124 148 124 144 q 124 156 124 151 l 124 932 q 114 1033 124 1011 q 61 1088 101 1061 l 424 1088 q 371 1033 381 1060 q 361 949 361 1006 q 361 940 361 943 q 361 932 361 936 l 361 156 m 256 1468 q 270 1468 261 1468 q 282 1468 279 1468 q 291 1467 285 1468 q 300 1465 297 1467 q 307 1462 303 1464 q 315 1456 311 1460 q 322 1447 318 1451 q 331 1433 326 1442 l 451 1250 q 465 1213 471 1217 q 431 1219 457 1204 l 257 1338 l 82 1219 q 47 1213 56 1204 q 61 1250 42 1217 l 181 1433 q 190 1448 186 1442 q 200 1458 194 1454 q 208 1464 206 1461 q 218 1467 211 1467 q 227 1468 225 1468 q 240 1468 229 1468 q 256 1468 251 1468 z "},"Ï":{"ha":428,"x_min":49,"x_max":460,"o":"m 361 156 q 371 54 361 76 q 424 0 383 26 l 61 0 q 114 55 104 28 q 124 139 124 82 q 124 148 124 144 q 124 156 124 151 l 124 932 q 114 1033 124 1011 q 61 1088 101 1061 l 424 1088 q 371 1033 381 1060 q 361 949 361 1006 q 361 940 361 943 q 361 932 361 936 l 361 156 m 76 1236 q 63 1250 76 1236 q 49 1303 49 1264 q 77 1370 49 1342 q 144 1399 106 1399 q 212 1370 183 1399 q 240 1303 240 1342 q 212 1236 240 1264 q 144 1208 183 1208 q 76 1236 104 1208 m 294 1236 q 281 1250 294 1236 q 267 1303 267 1264 q 294 1370 267 1342 q 363 1399 322 1399 q 431 1370 403 1399 q 460 1303 460 1342 q 431 1236 460 1264 q 363 1208 403 1208 q 294 1236 322 1208 z "},"Ñ":{"ha":971,"x_min":61,"x_max":958,"o":"m 707 932 q 697 1033 707 1011 q 644 1088 685 1061 l 958 1088 q 906 1033 915 1060 q 896 949 896 1006 q 896 940 896 943 q 896 932 896 936 l 896 0 l 740 0 l 313 707 l 313 156 q 322 54 313 76 q 375 0 335 26 l 61 0 q 114 55 104 28 q 124 139 124 82 q 124 148 124 144 q 124 156 124 151 l 124 932 q 114 1033 124 1011 q 61 1088 101 1061 l 328 1088 l 707 457 l 707 932 m 340 1215 q 351 1282 346 1260 q 381 1353 361 1325 q 492 1415 425 1415 q 621 1369 539 1414 q 719 1322 703 1325 q 769 1343 746 1318 q 822 1424 792 1368 q 833 1428 825 1433 q 836 1422 836 1425 q 790 1279 836 1333 q 665 1226 736 1218 q 558 1269 632 1232 q 534 1283 550 1274 q 510 1295 518 1292 q 492 1303 503 1299 q 472 1310 481 1308 q 456 1310 464 1311 q 398 1276 425 1307 q 356 1213 371 1246 q 346 1208 353 1207 q 340 1215 339 1210 z "},"Ò":{"ha":997,"x_min":61,"x_max":988,"o":"m 464 1115 q 676 1098 567 1128 q 861 976 785 1068 q 959 764 931 894 q 982 521 988 633 q 951 321 976 408 q 650 -8 878 63 q 526 -25 596 -24 q 373 -4 456 -26 q 233 67 290 18 q 136 198 175 115 q 85 362 97 281 q 67 525 72 443 q 71 657 61 607 q 145 896 85 778 q 318 1071 206 1014 q 464 1115 389 1106 m 414 892 q 339 725 361 838 q 319 517 317 613 q 333 349 321 421 q 351 274 342 301 q 384 212 360 246 q 447 160 408 178 q 519 146 478 144 q 593 165 561 147 q 717 450 694 222 q 722 591 719 508 q 700 771 724 674 q 628 911 676 868 q 560 940 601 933 q 494 938 518 946 q 414 892 450 928 m 333 1479 l 461 1479 q 495 1471 488 1479 q 519 1417 503 1463 l 575 1260 q 578 1210 590 1215 q 536 1235 567 1204 l 331 1451 q 322 1468 322 1458 q 333 1479 321 1478 z "},"Ó":{"ha":997,"x_min":61,"x_max":988,"o":"m 464 1115 q 676 1098 567 1128 q 861 976 785 1068 q 959 764 931 894 q 982 521 988 633 q 951 321 976 408 q 650 -8 878 63 q 526 -25 596 -24 q 373 -4 456 -26 q 233 67 290 18 q 136 198 175 115 q 85 362 97 281 q 67 525 72 443 q 71 657 61 607 q 145 896 85 778 q 318 1071 206 1014 q 464 1115 389 1106 m 414 892 q 339 725 361 838 q 319 517 317 613 q 333 349 321 421 q 351 274 342 301 q 384 212 360 246 q 447 160 408 178 q 519 146 478 144 q 593 165 561 147 q 717 450 694 222 q 722 591 719 508 q 700 771 724 674 q 628 911 676 868 q 560 940 601 933 q 494 938 518 946 q 414 892 450 928 m 744 1451 l 538 1235 q 497 1210 510 1204 q 500 1260 485 1215 l 556 1417 q 580 1471 572 1463 q 614 1479 588 1479 l 742 1479 q 753 1468 754 1478 q 744 1451 753 1458 z "},"Ô":{"ha":997,"x_min":61,"x_max":988,"o":"m 464 1115 q 676 1098 567 1128 q 861 976 785 1068 q 959 764 931 894 q 982 521 988 633 q 951 321 976 408 q 650 -8 878 63 q 526 -25 596 -24 q 373 -4 456 -26 q 233 67 290 18 q 136 198 175 115 q 85 362 97 281 q 67 525 72 443 q 71 657 61 607 q 145 896 85 778 q 318 1071 206 1014 q 464 1115 389 1106 m 414 892 q 339 725 361 838 q 319 517 317 613 q 333 349 321 421 q 351 274 342 301 q 384 212 360 246 q 447 160 408 178 q 519 146 478 144 q 593 165 561 147 q 717 450 694 222 q 722 591 719 508 q 700 771 724 674 q 628 911 676 868 q 560 940 601 933 q 494 938 518 946 q 414 892 450 928 m 536 1468 q 551 1468 542 1468 q 563 1468 560 1468 q 572 1467 565 1468 q 581 1465 578 1467 q 588 1462 583 1464 q 595 1456 592 1460 q 603 1447 599 1451 q 611 1433 607 1442 l 732 1250 q 746 1213 751 1217 q 711 1219 738 1204 l 538 1338 l 363 1219 q 328 1213 336 1204 q 342 1250 322 1217 l 463 1433 q 472 1446 468 1440 q 480 1456 476 1451 q 488 1462 483 1460 q 494 1465 492 1464 q 503 1467 497 1467 q 511 1468 508 1468 q 523 1468 514 1468 q 536 1468 532 1468 z "},"Õ":{"ha":997,"x_min":57,"x_max":983,"o":"m 460 1115 q 672 1098 563 1128 q 857 976 781 1068 q 955 764 926 894 q 978 521 983 633 q 947 321 972 408 q 646 -8 874 63 q 522 -25 592 -24 q 369 -4 451 -26 q 229 67 286 18 q 132 198 171 115 q 81 362 93 281 q 63 525 68 443 q 67 657 57 607 q 141 896 81 778 q 314 1071 201 1014 q 460 1115 385 1106 m 410 892 q 335 725 357 838 q 315 517 313 613 q 329 349 317 421 q 347 274 338 301 q 380 212 356 246 q 443 160 404 178 q 515 146 474 144 q 589 165 557 147 q 713 450 690 222 q 717 591 715 508 q 696 771 719 674 q 624 911 672 868 q 556 940 597 933 q 490 938 514 946 q 410 892 446 928 m 340 1215 q 351 1282 346 1260 q 381 1353 361 1325 q 492 1415 425 1415 q 621 1369 539 1414 q 719 1322 703 1325 q 769 1343 746 1318 q 822 1424 792 1368 q 833 1428 825 1433 q 836 1422 836 1425 q 790 1279 836 1333 q 665 1226 736 1218 q 558 1269 632 1232 q 534 1283 550 1274 q 510 1295 518 1292 q 492 1303 503 1299 q 472 1310 481 1308 q 456 1310 464 1311 q 398 1276 425 1307 q 356 1213 371 1246 q 346 1208 353 1207 q 340 1215 339 1210 z "},"Ö":{"ha":997,"x_min":61,"x_max":988,"o":"m 464 1115 q 676 1098 567 1128 q 861 976 785 1068 q 959 764 931 894 q 982 521 988 633 q 951 321 976 408 q 650 -8 878 63 q 526 -25 596 -24 q 373 -4 456 -26 q 233 67 290 18 q 136 198 175 115 q 85 362 97 281 q 67 525 72 443 q 71 657 61 607 q 145 896 85 778 q 318 1071 206 1014 q 464 1115 389 1106 m 414 892 q 339 725 361 838 q 319 517 317 613 q 333 349 321 421 q 351 274 342 301 q 384 212 360 246 q 447 160 408 178 q 519 146 478 144 q 593 165 561 147 q 717 450 694 222 q 722 591 719 508 q 700 771 724 674 q 628 911 676 868 q 560 940 601 933 q 494 938 518 946 q 414 892 450 928 m 357 1236 q 343 1250 357 1236 q 329 1303 329 1264 q 358 1370 329 1342 q 425 1399 386 1399 q 492 1370 464 1399 q 521 1303 521 1342 q 493 1236 521 1264 q 425 1208 465 1208 q 357 1236 385 1208 m 575 1236 q 561 1250 575 1236 q 547 1303 547 1264 q 575 1370 547 1342 q 643 1399 603 1399 q 712 1370 683 1399 q 740 1303 740 1342 q 712 1236 740 1264 q 643 1208 683 1208 q 575 1236 603 1208 z "},"Ù":{"ha":976,"x_min":61,"x_max":969,"o":"m 718 932 q 708 1033 718 1011 q 656 1088 696 1061 l 969 1088 q 917 1033 926 1060 q 907 949 907 1006 q 907 940 907 943 q 907 932 907 936 l 907 375 q 906 317 907 332 q 903 258 906 303 q 891 190 900 214 q 867 130 882 165 q 825 68 851 94 q 763 21 799 42 q 520 -24 682 -24 q 265 25 358 -25 q 224 55 243 39 q 190 86 204 71 q 166 124 176 101 q 149 160 156 146 q 136 201 142 175 q 128 240 131 228 q 125 282 126 253 q 124 320 124 311 q 124 359 124 329 q 124 394 124 389 l 124 932 q 114 1033 124 1011 q 61 1088 101 1061 l 424 1088 q 371 1033 381 1060 q 361 949 361 1006 q 361 940 361 943 q 361 932 361 936 l 361 418 q 363 337 361 367 q 373 269 365 307 q 399 208 381 232 q 449 168 418 183 q 542 149 482 149 q 640 174 601 150 q 694 238 676 196 q 715 315 713 281 q 718 410 718 349 l 718 932 m 357 1479 l 485 1479 q 519 1471 511 1479 q 542 1417 526 1463 l 599 1260 q 601 1210 614 1215 q 560 1235 590 1204 l 354 1451 q 345 1468 346 1458 q 357 1479 344 1478 z "},"Ú":{"ha":976,"x_min":61,"x_max":969,"o":"m 718 932 q 708 1033 718 1011 q 656 1088 696 1061 l 969 1088 q 917 1033 926 1060 q 907 949 907 1006 q 907 940 907 943 q 907 932 907 936 l 907 375 q 906 317 907 332 q 903 258 906 303 q 891 190 900 214 q 867 130 882 165 q 825 68 851 94 q 763 21 799 42 q 520 -24 682 -24 q 265 25 358 -25 q 224 55 243 39 q 190 86 204 71 q 166 124 176 101 q 149 160 156 146 q 136 201 142 175 q 128 240 131 228 q 125 282 126 253 q 124 320 124 311 q 124 359 124 329 q 124 394 124 389 l 124 932 q 114 1033 124 1011 q 61 1088 101 1061 l 424 1088 q 371 1033 381 1060 q 361 949 361 1006 q 361 940 361 943 q 361 932 361 936 l 361 418 q 363 337 361 367 q 373 269 365 307 q 399 208 381 232 q 449 168 418 183 q 542 149 482 149 q 640 174 601 150 q 694 238 676 196 q 715 315 713 281 q 718 410 718 349 l 718 932 m 796 1451 l 589 1235 q 547 1210 558 1204 q 550 1260 535 1215 l 607 1417 q 631 1471 624 1463 q 665 1479 639 1479 l 793 1479 q 805 1468 806 1478 q 796 1451 804 1458 z "},"Û":{"ha":976,"x_min":61,"x_max":969,"o":"m 718 932 q 708 1033 718 1011 q 656 1088 696 1061 l 969 1088 q 917 1033 926 1060 q 907 949 907 1006 q 907 940 907 943 q 907 932 907 936 l 907 375 q 906 317 907 332 q 903 258 906 303 q 891 190 900 214 q 867 130 882 165 q 825 68 851 94 q 763 21 799 42 q 520 -24 682 -24 q 265 25 358 -25 q 224 55 243 39 q 190 86 204 71 q 166 124 176 101 q 149 160 156 146 q 136 201 142 175 q 128 240 131 228 q 125 282 126 253 q 124 320 124 311 q 124 359 124 329 q 124 394 124 389 l 124 932 q 114 1033 124 1011 q 61 1088 101 1061 l 424 1088 q 371 1033 381 1060 q 361 949 361 1006 q 361 940 361 943 q 361 932 361 936 l 361 418 q 363 337 361 367 q 373 269 365 307 q 399 208 381 232 q 449 168 418 183 q 542 149 482 149 q 640 174 601 150 q 694 238 676 196 q 715 315 713 281 q 718 410 718 349 l 718 932 m 546 1468 q 560 1468 551 1468 q 572 1468 569 1468 q 581 1467 575 1468 q 590 1465 588 1467 q 597 1462 593 1464 q 605 1456 601 1460 q 613 1447 608 1451 q 621 1433 617 1442 l 742 1250 q 756 1213 761 1217 q 721 1219 747 1204 l 547 1338 l 372 1219 q 338 1213 346 1204 q 351 1250 332 1217 l 472 1433 q 482 1446 478 1440 q 490 1456 486 1451 q 497 1462 493 1460 q 504 1465 501 1464 q 513 1467 507 1467 q 521 1468 518 1468 q 533 1468 524 1468 q 546 1468 542 1468 z "},"Ü":{"ha":976,"x_min":61,"x_max":969,"o":"m 718 932 q 708 1033 718 1011 q 656 1088 696 1061 l 969 1088 q 917 1033 926 1060 q 907 949 907 1006 q 907 940 907 943 q 907 932 907 936 l 907 375 q 906 317 907 332 q 903 258 906 303 q 891 190 900 214 q 867 130 882 165 q 825 68 851 94 q 763 21 799 42 q 520 -24 682 -24 q 265 25 358 -25 q 224 55 243 39 q 190 86 204 71 q 166 124 176 101 q 149 160 156 146 q 136 201 142 175 q 128 240 131 228 q 125 282 126 253 q 124 320 124 311 q 124 359 124 329 q 124 394 124 389 l 124 932 q 114 1033 124 1011 q 61 1088 101 1061 l 424 1088 q 371 1033 381 1060 q 361 949 361 1006 q 361 940 361 943 q 361 932 361 936 l 361 418 q 363 337 361 367 q 373 269 365 307 q 399 208 381 232 q 449 168 418 183 q 542 149 482 149 q 640 174 601 150 q 694 238 676 196 q 715 315 713 281 q 718 410 718 349 l 718 932 m 367 1236 q 353 1250 367 1236 q 339 1303 339 1264 q 367 1370 339 1342 q 435 1399 394 1399 q 503 1370 475 1399 q 531 1303 531 1342 q 503 1236 531 1264 q 435 1208 475 1208 q 367 1236 394 1208 m 585 1236 q 571 1250 585 1236 q 557 1303 557 1264 q 585 1370 557 1342 q 653 1399 614 1399 q 722 1370 693 1399 q 750 1303 750 1342 q 722 1236 750 1264 q 653 1208 693 1208 q 585 1236 613 1208 z "},"ß":{"ha":867,"x_min":86,"x_max":851,"o":"m 632 593 q 832 432 792 551 q 842 288 851 382 q 796 142 833 193 q 735 78 769 104 q 673 38 701 51 q 601 17 644 24 q 531 10 558 11 q 457 8 504 8 l 397 8 l 397 157 q 550 186 507 164 q 610 240 589 206 q 614 411 653 317 q 501 496 585 482 q 406 500 481 500 l 406 668 l 411 668 q 502 686 456 668 q 569 746 549 704 q 588 812 585 774 q 579 885 592 850 q 500 956 558 938 q 372 926 428 972 q 353 906 361 917 q 339 884 344 894 q 329 858 333 874 q 323 834 325 843 q 320 806 321 825 q 319 781 319 788 q 319 753 319 774 q 319 729 319 733 l 319 8 l 86 8 q 122 142 122 33 l 122 735 q 154 945 122 861 q 292 1086 186 1029 q 499 1131 382 1135 q 699 1069 617 1126 q 814 822 835 974 q 632 593 790 647 z "},"à":{"ha":731,"x_min":61,"x_max":747,"o":"m 747 115 l 651 -7 q 472 56 546 -17 q 218 11 351 -28 q 75 133 113 43 q 62 217 61 165 q 82 304 63 268 q 186 403 117 369 q 331 442 256 436 l 349 443 q 410 452 389 446 q 438 465 432 458 q 450 485 443 471 q 453 516 453 492 q 450 547 453 540 q 374 597 436 585 q 243 589 318 607 q 110 528 168 571 l 122 711 l 176 726 q 309 749 239 743 q 458 742 379 756 q 582 689 536 728 q 606 663 596 678 q 624 635 617 647 q 635 602 631 622 q 643 571 640 582 q 647 536 646 560 q 649 505 649 513 q 649 472 649 497 q 649 444 649 447 l 649 272 q 650 201 649 221 q 660 162 651 182 q 686 131 668 142 q 747 115 706 119 m 313 290 q 279 206 272 256 q 322 150 285 167 q 407 157 364 131 q 430 173 421 165 q 444 190 439 181 q 451 211 450 200 q 453 238 453 222 q 454 274 454 254 q 454 322 454 294 l 444 322 q 313 290 350 322 m 201 1104 l 329 1104 q 363 1096 356 1104 q 388 1042 371 1088 l 444 885 q 447 835 460 840 q 406 861 435 829 l 199 1076 q 190 1093 190 1083 q 201 1104 189 1103 z "},"á":{"ha":731,"x_min":61,"x_max":747,"o":"m 747 115 l 651 -7 q 472 56 546 -17 q 218 11 351 -28 q 75 133 113 43 q 62 217 61 165 q 82 304 63 268 q 186 403 117 369 q 331 442 256 436 l 349 443 q 410 452 389 446 q 438 465 432 458 q 450 485 443 471 q 453 516 453 492 q 450 547 453 540 q 374 597 436 585 q 243 589 318 607 q 110 528 168 571 l 122 711 l 176 726 q 309 749 239 743 q 458 742 379 756 q 582 689 536 728 q 606 663 596 678 q 624 635 617 647 q 635 602 631 622 q 643 571 640 582 q 647 536 646 560 q 649 505 649 513 q 649 472 649 497 q 649 444 649 447 l 649 272 q 650 201 649 221 q 660 162 651 182 q 686 131 668 142 q 747 115 706 119 m 313 290 q 279 206 272 256 q 322 150 285 167 q 407 157 364 131 q 430 173 421 165 q 444 190 439 181 q 451 211 450 200 q 453 238 453 222 q 454 274 454 254 q 454 322 454 294 l 444 322 q 313 290 350 322 m 626 1076 l 421 861 q 379 835 392 829 q 382 885 367 840 l 439 1042 q 463 1096 456 1088 q 497 1104 471 1104 l 624 1104 q 635 1093 636 1103 q 626 1076 635 1083 z "},"â":{"ha":731,"x_min":61,"x_max":747,"o":"m 747 115 l 651 -7 q 472 56 546 -17 q 218 11 351 -28 q 75 133 113 43 q 62 217 61 165 q 82 304 63 268 q 186 403 117 369 q 331 442 256 436 l 349 443 q 410 452 389 446 q 438 465 432 458 q 450 485 443 471 q 453 516 453 492 q 450 547 453 540 q 374 597 436 585 q 243 589 318 607 q 110 528 168 571 l 122 711 l 176 726 q 309 749 239 743 q 458 742 379 756 q 582 689 536 728 q 606 663 596 678 q 624 635 617 647 q 635 602 631 622 q 643 571 640 582 q 647 536 646 560 q 649 505 649 513 q 649 472 649 497 q 649 444 649 447 l 649 272 q 650 201 649 221 q 660 162 651 182 q 686 131 668 142 q 747 115 706 119 m 313 290 q 279 206 272 256 q 322 150 285 167 q 407 157 364 131 q 430 173 421 165 q 444 190 439 181 q 451 211 450 200 q 453 238 453 222 q 454 274 454 254 q 454 322 454 294 l 444 322 q 313 290 350 322 m 393 1093 q 408 1093 399 1093 q 419 1093 417 1093 q 428 1092 422 1093 q 438 1090 435 1092 q 444 1087 440 1089 q 452 1081 449 1085 q 460 1072 456 1076 q 468 1058 464 1067 l 588 875 q 601 838 607 843 q 567 846 593 829 l 394 963 l 218 846 q 183 838 192 829 q 197 875 178 843 l 318 1058 q 328 1073 324 1067 q 338 1083 332 1079 q 346 1089 343 1086 q 356 1092 349 1092 q 365 1093 363 1093 q 378 1093 367 1093 q 393 1093 389 1093 z "},"ã":{"ha":731,"x_min":61,"x_max":747,"o":"m 747 115 l 651 -7 q 472 56 546 -17 q 218 11 351 -28 q 75 133 113 43 q 62 217 61 165 q 82 304 63 268 q 186 403 117 369 q 331 442 256 436 l 349 443 q 410 452 389 446 q 438 465 432 458 q 450 485 443 471 q 453 516 453 492 q 450 547 453 540 q 374 597 436 585 q 243 589 318 607 q 110 528 168 571 l 122 711 l 176 726 q 309 749 239 743 q 458 742 379 756 q 582 689 536 728 q 606 663 596 678 q 624 635 617 647 q 635 602 631 622 q 643 571 640 582 q 647 536 646 560 q 649 505 649 513 q 649 472 649 497 q 649 444 649 447 l 649 272 q 650 201 649 221 q 660 162 651 182 q 686 131 668 142 q 747 115 706 119 m 313 290 q 279 206 272 256 q 322 150 285 167 q 407 157 364 131 q 430 173 421 165 q 444 190 439 181 q 451 211 450 200 q 453 238 453 222 q 454 274 454 254 q 454 322 454 294 l 444 322 q 313 290 350 322 m 147 840 q 158 907 151 881 q 186 978 169 953 q 297 1040 231 1040 q 427 994 344 1039 q 525 947 510 950 q 574 968 551 943 q 628 1049 597 993 q 639 1053 631 1058 l 642 1047 q 596 904 642 958 q 472 853 542 844 q 365 894 435 858 q 340 908 356 900 q 316 920 324 917 q 297 928 308 924 q 278 935 286 933 q 261 935 269 936 q 203 901 231 932 q 163 838 176 869 q 153 833 160 832 q 147 840 146 835 z "},"ä":{"ha":731,"x_min":61,"x_max":747,"o":"m 747 115 l 651 -7 q 472 56 546 -17 q 218 11 351 -28 q 75 133 113 43 q 62 217 61 165 q 82 304 63 268 q 186 403 117 369 q 331 442 256 436 l 349 443 q 410 452 389 446 q 438 465 432 458 q 450 485 443 471 q 453 516 453 492 q 450 547 453 540 q 374 597 436 585 q 243 589 318 607 q 110 528 168 571 l 122 711 l 176 726 q 309 749 239 743 q 458 742 379 756 q 582 689 536 728 q 606 663 596 678 q 624 635 617 647 q 635 602 631 622 q 643 571 640 582 q 647 536 646 560 q 649 505 649 513 q 649 472 649 497 q 649 444 649 447 l 649 272 q 650 201 649 221 q 660 162 651 182 q 686 131 668 142 q 747 115 706 119 m 313 290 q 279 206 272 256 q 322 150 285 167 q 407 157 364 131 q 430 173 421 165 q 444 190 439 181 q 451 211 450 200 q 453 238 453 222 q 454 274 454 254 q 454 322 454 294 l 444 322 q 313 290 350 322 m 201 861 q 188 875 201 861 q 174 928 174 889 q 202 995 174 967 q 269 1024 231 1024 q 338 995 310 1024 q 367 928 367 967 q 338 861 367 889 q 269 833 310 833 q 201 861 229 833 m 421 861 q 407 875 421 861 q 393 928 393 889 q 422 995 393 967 q 489 1024 450 1024 q 556 995 528 1024 q 585 928 585 967 q 556 861 585 889 q 489 833 528 833 q 421 861 449 833 z "},"å":{"ha":731,"x_min":61,"x_max":747,"o":"m 747 115 l 651 -7 q 472 56 546 -17 q 218 11 351 -28 q 75 133 113 43 q 62 217 61 165 q 82 304 63 268 q 186 403 117 369 q 331 442 256 436 l 349 443 q 410 452 389 446 q 438 465 432 458 q 450 485 443 471 q 453 516 453 492 q 450 547 453 540 q 374 597 436 585 q 243 589 318 607 q 110 528 168 571 l 122 711 l 176 726 q 309 749 239 743 q 458 742 379 756 q 582 689 536 728 q 606 663 596 678 q 624 635 617 647 q 635 602 631 622 q 643 571 640 582 q 647 536 646 560 q 649 505 649 513 q 649 472 649 497 q 649 444 649 447 l 649 272 q 650 201 649 221 q 660 162 651 182 q 686 131 668 142 q 747 115 706 119 m 313 290 q 279 206 272 256 q 322 150 285 167 q 407 157 364 131 q 430 173 421 165 q 444 190 439 181 q 451 211 450 200 q 453 238 453 222 q 454 274 454 254 q 454 322 454 294 l 444 322 q 313 290 350 322 m 312 863 q 297 877 312 863 q 282 935 282 892 q 312 1008 282 978 q 385 1038 342 1038 q 458 1008 428 1038 q 488 935 488 978 q 458 863 488 892 q 385 833 428 833 q 312 863 342 833 m 385 885 q 422 899 407 885 q 436 936 436 914 q 421 972 436 957 q 385 988 406 988 q 349 972 364 988 q 333 936 333 956 q 349 899 333 914 q 385 885 364 885 z "},"ç":{"ha":647,"x_min":63,"x_max":631,"o":"m 397 -8 q 269 13 329 -8 q 72 247 110 72 q 63 379 63 310 q 92 526 64 449 q 169 653 119 603 q 519 739 304 788 q 544 731 528 738 q 571 723 561 725 q 597 722 581 721 q 631 733 613 724 l 631 490 q 449 603 563 603 q 310 521 357 603 q 280 370 282 472 q 301 219 278 268 q 432 133 340 142 q 589 207 532 133 q 631 268 625 258 l 631 150 q 628 107 631 122 q 615 72 626 92 q 581 35 604 51 q 424 -8 524 -8 l 410 -85 q 499 -157 489 -103 q 476 -236 499 -210 q 398 -278 446 -271 q 326 -271 350 -286 q 325 -262 319 -269 q 331 -260 326 -258 q 383 -260 356 -267 q 421 -232 411 -253 q 424 -187 433 -204 q 368 -151 413 -165 l 397 -8 z "},"è":{"ha":699,"x_min":58,"x_max":683,"o":"m 661 272 l 661 222 q 661 194 661 215 q 661 167 661 174 q 660 144 661 161 q 656 121 658 128 q 650 101 654 114 q 639 79 646 88 q 622 60 632 71 q 600 42 613 50 q 428 -8 536 -3 q 257 17 321 -12 q 75 254 111 76 q 78 469 58 344 q 169 664 99 594 q 311 742 231 724 q 464 744 392 760 q 651 582 596 715 q 678 454 672 532 q 674 368 683 376 q 579 356 665 356 q 569 356 572 356 q 559 356 565 356 q 547 356 553 356 l 282 356 q 287 281 281 329 q 304 210 293 232 q 401 135 336 143 q 619 217 526 117 q 661 272 642 240 m 474 532 q 444 588 469 565 q 353 601 408 622 q 288 501 304 583 q 296 486 288 486 l 460 486 q 474 495 471 486 q 474 532 476 504 m 201 1104 l 329 1104 q 363 1096 356 1104 q 388 1042 371 1088 l 444 885 q 447 835 460 840 q 406 861 435 829 l 199 1076 q 190 1093 190 1083 q 201 1104 189 1103 z "},"é":{"ha":699,"x_min":58,"x_max":683,"o":"m 661 272 l 661 222 q 661 194 661 215 q 661 167 661 174 q 660 144 661 161 q 656 121 658 128 q 650 101 654 114 q 639 79 646 88 q 622 60 632 71 q 600 42 613 50 q 428 -8 536 -3 q 257 17 321 -12 q 75 254 111 76 q 78 469 58 344 q 169 664 99 594 q 311 742 231 724 q 464 744 392 760 q 651 582 596 715 q 678 454 672 532 q 674 368 683 376 q 579 356 665 356 q 569 356 572 356 q 559 356 565 356 q 547 356 553 356 l 282 356 q 287 281 281 329 q 304 210 293 232 q 401 135 336 143 q 619 217 526 117 q 661 272 642 240 m 474 532 q 444 588 469 565 q 353 601 408 622 q 288 501 304 583 q 296 486 288 486 l 460 486 q 474 495 471 486 q 474 532 476 504 m 626 1076 l 421 861 q 379 835 392 829 q 382 885 367 840 l 439 1042 q 463 1096 456 1088 q 497 1104 471 1104 l 624 1104 q 635 1093 636 1103 q 626 1076 635 1083 z "},"ê":{"ha":699,"x_min":58,"x_max":683,"o":"m 661 272 l 661 222 q 661 194 661 215 q 661 167 661 174 q 660 144 661 161 q 656 121 658 128 q 650 101 654 114 q 639 79 646 88 q 622 60 632 71 q 600 42 613 50 q 428 -8 536 -3 q 257 17 321 -12 q 75 254 111 76 q 78 469 58 344 q 169 664 99 594 q 311 742 231 724 q 464 744 392 760 q 651 582 596 715 q 678 454 672 532 q 674 368 683 376 q 579 356 665 356 q 569 356 572 356 q 559 356 565 356 q 547 356 553 356 l 282 356 q 287 281 281 329 q 304 210 293 232 q 401 135 336 143 q 619 217 526 117 q 661 272 642 240 m 474 532 q 444 588 469 565 q 353 601 408 622 q 288 501 304 583 q 296 486 288 486 l 460 486 q 474 495 471 486 q 474 532 476 504 m 407 1093 q 422 1093 413 1093 q 433 1093 431 1093 q 442 1092 436 1093 q 451 1090 449 1092 q 458 1087 454 1089 q 466 1081 463 1085 q 474 1072 469 1076 q 482 1058 478 1067 l 601 875 q 615 838 621 843 q 581 846 607 829 l 408 963 l 232 846 q 197 838 206 829 q 211 875 192 843 l 332 1058 q 342 1073 338 1067 q 351 1083 346 1079 q 360 1089 357 1086 q 369 1092 363 1092 q 378 1093 376 1093 q 392 1093 381 1093 q 407 1093 403 1093 z "},"ë":{"ha":699,"x_min":58,"x_max":683,"o":"m 661 272 l 661 222 q 661 194 661 215 q 661 167 661 174 q 660 144 661 161 q 656 121 658 128 q 650 101 654 114 q 639 79 646 88 q 622 60 632 71 q 600 42 613 50 q 428 -8 536 -3 q 257 17 321 -12 q 75 254 111 76 q 78 469 58 344 q 169 664 99 594 q 311 742 231 724 q 464 744 392 760 q 651 582 596 715 q 678 454 672 532 q 674 368 683 376 q 579 356 665 356 q 569 356 572 356 q 559 356 565 356 q 547 356 553 356 l 282 356 q 287 281 281 329 q 304 210 293 232 q 401 135 336 143 q 619 217 526 117 q 661 272 642 240 m 474 532 q 444 588 469 565 q 353 601 408 622 q 288 501 304 583 q 296 486 288 486 l 460 486 q 474 495 471 486 q 474 532 476 504 m 201 861 q 188 875 201 861 q 174 928 174 889 q 202 995 174 967 q 269 1024 231 1024 q 338 995 310 1024 q 367 928 367 967 q 338 861 367 889 q 269 833 310 833 q 201 861 229 833 m 421 861 q 407 875 421 861 q 393 928 393 889 q 422 995 393 967 q 489 1024 450 1024 q 556 995 528 1024 q 585 928 585 967 q 556 861 585 889 q 489 833 528 833 q 421 861 449 833 z "},"ì":{"ha":396,"x_min":38,"x_max":375,"o":"m 318 132 q 319 81 318 99 q 334 40 321 64 q 375 0 347 15 l 67 0 q 108 40 94 15 q 122 81 121 64 q 124 132 124 99 l 124 575 q 123 606 124 597 q 117 632 122 615 q 97 658 111 649 q 60 675 83 668 l 318 743 l 318 132 m 50 1104 l 176 1104 q 210 1096 203 1104 q 235 1042 218 1088 l 292 885 q 294 835 307 840 q 253 861 282 829 l 47 1076 q 38 1093 39 1083 q 50 1104 38 1103 z "},"í":{"ha":396,"x_min":60,"x_max":485,"o":"m 318 132 q 319 81 318 99 q 334 40 321 64 q 375 0 347 15 l 67 0 q 108 40 94 15 q 122 81 121 64 q 124 132 124 99 l 124 575 q 123 606 124 597 q 117 632 122 615 q 97 658 111 649 q 60 675 83 668 l 318 743 l 318 132 m 475 1076 l 268 861 q 226 835 239 829 q 229 885 214 840 l 286 1042 q 310 1096 303 1088 q 344 1104 318 1104 l 472 1104 q 484 1093 485 1103 q 475 1076 483 1083 z "},"î":{"ha":396,"x_min":40,"x_max":469,"o":"m 318 132 q 319 81 318 99 q 334 40 321 64 q 375 0 347 15 l 67 0 q 108 40 94 15 q 122 81 121 64 q 124 132 124 99 l 124 575 q 123 606 124 597 q 117 632 122 615 q 97 658 111 649 q 60 675 83 668 l 318 743 l 318 132 m 254 1093 q 269 1093 260 1093 q 281 1093 278 1093 q 290 1092 283 1093 q 299 1090 296 1092 q 306 1087 301 1089 q 313 1081 310 1085 q 321 1072 317 1076 q 329 1058 325 1067 l 450 875 q 464 838 469 843 q 429 846 456 829 l 256 963 l 81 846 q 46 838 54 829 q 60 875 40 843 l 179 1058 q 189 1073 185 1067 q 199 1083 193 1079 q 207 1089 204 1086 q 217 1092 210 1092 q 226 1093 224 1093 q 239 1093 228 1093 q 254 1093 250 1093 z "},"ï":{"ha":396,"x_min":36,"x_max":447,"o":"m 318 132 q 319 81 318 99 q 334 40 321 64 q 375 0 347 15 l 67 0 q 108 40 94 15 q 122 81 121 64 q 124 132 124 99 l 124 575 q 123 606 124 597 q 117 632 122 615 q 97 658 111 649 q 60 675 83 668 l 318 743 l 318 132 m 64 861 q 50 875 64 861 q 36 928 36 889 q 64 995 36 967 q 132 1024 92 1024 q 199 995 171 1024 q 228 928 228 967 q 199 861 228 889 q 132 833 171 833 q 64 861 92 833 m 282 861 q 268 875 282 861 q 254 928 254 889 q 283 995 254 967 q 350 1024 311 1024 q 419 995 390 1024 q 447 928 447 967 q 419 861 447 889 q 350 833 390 833 q 282 861 310 833 z "},"ñ":{"ha":776,"x_min":65,"x_max":760,"o":"m 626 714 q 651 695 640 706 q 670 672 663 685 q 684 647 678 658 q 694 618 690 636 q 699 591 697 600 q 702 561 701 582 q 703 534 703 540 q 703 506 703 528 q 703 482 703 485 l 703 132 q 704 81 703 99 q 719 40 706 64 q 760 0 732 15 l 451 0 q 492 40 479 15 q 507 81 506 64 q 508 132 508 99 l 508 417 q 499 550 508 524 q 468 586 488 574 q 417 596 450 596 q 361 579 385 596 q 329 536 339 564 q 319 489 319 508 q 318 414 318 469 l 318 132 q 319 81 318 99 q 334 40 321 64 q 375 0 347 15 l 67 0 q 108 40 94 15 q 122 81 121 64 q 124 132 124 99 l 124 535 q 124 551 124 540 q 123 597 124 582 q 117 630 122 611 q 99 663 111 649 q 65 690 88 676 l 271 743 l 292 690 q 464 751 365 746 q 626 714 563 756 m 174 840 q 185 907 178 881 q 214 978 194 950 q 325 1040 258 1040 q 455 994 372 1039 q 553 947 538 950 q 602 968 579 943 q 656 1049 625 993 q 667 1053 658 1058 l 669 1047 q 624 904 669 958 q 500 853 569 844 q 393 894 463 858 q 367 908 383 900 q 344 920 351 917 q 325 928 336 924 q 306 935 314 933 q 289 935 297 936 q 231 901 258 932 q 189 838 204 871 q 180 833 186 832 q 174 840 174 835 z "},"ò":{"ha":754,"x_min":56,"x_max":735,"o":"m 339 746 q 499 739 414 758 q 646 653 583 719 q 712 525 689 607 q 733 372 735 443 q 722 243 732 300 q 521 11 682 68 q 357 -7 465 -14 q 188 46 249 0 q 84 206 113 104 q 57 401 56 307 q 98 569 58 482 q 225 707 138 656 q 339 746 278 738 m 293 529 q 274 349 269 482 q 314 171 279 215 q 413 128 351 122 q 501 200 472 136 q 515 375 519 236 q 479 558 511 514 q 382 603 442 611 q 293 529 319 597 m 197 1104 l 325 1104 q 359 1096 351 1104 q 383 1042 367 1088 l 440 885 q 443 835 456 840 q 401 861 431 829 l 194 1076 q 185 1093 186 1083 q 197 1104 185 1103 z "},"ó":{"ha":754,"x_min":56,"x_max":735,"o":"m 339 746 q 499 739 414 758 q 646 653 583 719 q 712 525 689 607 q 733 372 735 443 q 722 243 732 300 q 521 11 682 68 q 357 -7 465 -14 q 188 46 249 0 q 84 206 113 104 q 57 401 56 307 q 98 569 58 482 q 225 707 138 656 q 339 746 278 738 m 293 529 q 274 349 269 482 q 314 171 279 215 q 413 128 351 122 q 501 200 472 136 q 515 375 519 236 q 479 558 511 514 q 382 603 442 611 q 293 529 319 597 m 636 1076 l 431 861 q 389 835 401 829 q 392 885 376 840 l 449 1042 q 473 1096 465 1088 q 507 1104 481 1104 l 633 1104 q 645 1093 646 1103 q 636 1076 644 1083 z "},"ô":{"ha":754,"x_min":56,"x_max":735,"o":"m 339 746 q 499 739 414 758 q 646 653 583 719 q 712 525 689 607 q 733 372 735 443 q 722 243 732 300 q 521 11 682 68 q 357 -7 465 -14 q 188 46 249 0 q 84 206 113 104 q 57 401 56 307 q 98 569 58 482 q 225 707 138 656 q 339 746 278 738 m 293 529 q 274 349 269 482 q 314 171 279 215 q 413 128 351 122 q 501 200 472 136 q 515 375 519 236 q 479 558 511 514 q 382 603 442 611 q 293 529 319 597 m 417 1093 q 431 1093 422 1093 q 443 1093 440 1093 q 452 1092 446 1093 q 461 1090 458 1092 q 468 1087 464 1089 q 476 1081 472 1085 q 483 1072 479 1076 q 492 1058 488 1067 l 611 875 q 625 838 631 843 q 590 846 617 829 l 418 963 l 242 846 q 207 838 215 829 q 221 875 201 843 l 342 1058 q 351 1073 347 1067 q 361 1083 356 1079 q 369 1089 367 1086 q 379 1092 372 1092 q 388 1093 386 1093 q 401 1093 390 1093 q 417 1093 413 1093 z "},"õ":{"ha":754,"x_min":56,"x_max":735,"o":"m 339 746 q 499 739 414 758 q 646 653 583 719 q 712 525 689 607 q 733 372 735 443 q 722 243 732 300 q 521 11 682 68 q 357 -7 465 -14 q 188 46 249 0 q 84 206 113 104 q 57 401 56 307 q 98 569 58 482 q 225 707 138 656 q 339 746 278 738 m 293 529 q 274 349 269 482 q 314 171 279 215 q 413 128 351 122 q 501 200 472 136 q 515 375 519 236 q 479 558 511 514 q 382 603 442 611 q 293 529 319 597 m 171 840 q 181 907 176 890 q 210 978 190 950 q 321 1040 254 1040 q 451 994 368 1039 q 549 947 533 950 q 598 968 575 943 q 651 1049 621 993 q 663 1053 654 1058 l 665 1047 q 619 904 665 958 q 496 853 565 844 q 389 894 458 858 q 363 908 379 900 q 340 920 347 917 q 321 928 332 924 q 301 935 310 933 q 285 935 293 936 q 227 901 254 932 q 185 838 200 871 q 176 833 182 832 q 171 840 169 835 z "},"ö":{"ha":754,"x_min":56,"x_max":735,"o":"m 339 746 q 499 739 414 758 q 646 653 583 719 q 712 525 689 607 q 733 372 735 443 q 722 243 732 300 q 521 11 682 68 q 357 -7 465 -14 q 188 46 249 0 q 84 206 113 104 q 57 401 56 307 q 98 569 58 482 q 225 707 138 656 q 339 746 278 738 m 293 529 q 274 349 269 482 q 314 171 279 215 q 413 128 351 122 q 501 200 472 136 q 515 375 519 236 q 479 558 511 514 q 382 603 442 611 q 293 529 319 597 m 253 861 q 239 875 253 861 q 225 928 225 889 q 253 995 225 967 q 321 1024 281 1024 q 390 995 361 1024 q 418 928 418 967 q 390 861 418 889 q 321 833 361 833 q 253 861 281 833 m 472 861 q 458 875 472 861 q 444 928 444 889 q 472 995 444 967 q 539 1024 500 1024 q 608 995 579 1024 q 636 928 636 967 q 608 861 636 889 q 539 833 579 833 q 472 861 500 833 z "},"÷":{"ha":549,"x_min":61,"x_max":543,"o":"m 472 1293 l 543 1293 l 133 -228 l 61 -228 l 472 1293 z "},"ù":{"ha":778,"x_min":60,"x_max":764,"o":"m 504 575 q 503 606 504 597 q 497 632 503 615 q 478 658 492 649 q 440 675 464 668 l 699 743 l 699 208 q 699 189 699 206 q 699 167 699 172 q 700 147 699 163 q 703 124 701 131 q 710 103 706 117 q 722 82 715 90 q 740 65 729 74 q 764 49 750 56 l 553 1 q 522 56 536 15 q 374 -6 453 4 q 222 18 296 -17 q 194 37 207 26 q 171 56 181 47 q 153 81 161 65 q 141 105 146 97 q 133 133 136 113 q 127 158 129 153 q 124 188 125 164 q 124 215 124 213 q 124 244 124 218 l 124 271 l 124 575 q 123 606 124 597 q 117 632 122 615 q 97 658 111 649 q 60 675 83 668 l 318 743 l 318 333 q 325 196 318 226 q 367 146 332 165 q 460 153 410 124 q 478 167 471 158 q 491 189 486 176 q 499 210 496 201 q 503 238 501 219 q 504 263 504 256 q 504 290 504 269 q 504 314 504 311 l 504 575 m 229 1104 l 357 1104 q 391 1096 383 1104 q 415 1042 399 1088 l 472 885 q 475 835 488 840 q 433 861 463 829 l 226 1076 q 217 1093 218 1083 q 229 1104 217 1103 z "},"ú":{"ha":778,"x_min":60,"x_max":764,"o":"m 504 575 q 503 606 504 597 q 497 632 503 615 q 478 658 492 649 q 440 675 464 668 l 699 743 l 699 208 q 699 189 699 206 q 699 167 699 172 q 700 147 699 163 q 703 124 701 131 q 710 103 706 117 q 722 82 715 90 q 740 65 729 74 q 764 49 750 56 l 553 1 q 522 56 536 15 q 374 -6 453 4 q 222 18 296 -17 q 194 37 207 26 q 171 56 181 47 q 153 81 161 65 q 141 105 146 97 q 133 133 136 113 q 127 158 129 153 q 124 188 125 164 q 124 215 124 213 q 124 244 124 218 l 124 271 l 124 575 q 123 606 124 597 q 117 632 122 615 q 97 658 111 649 q 60 675 83 668 l 318 743 l 318 333 q 325 196 318 226 q 367 146 332 165 q 460 153 410 124 q 478 167 471 158 q 491 189 486 176 q 499 210 496 201 q 503 238 501 219 q 504 263 504 256 q 504 290 504 269 q 504 314 504 311 l 504 575 m 682 1076 l 476 861 q 435 835 447 829 q 438 885 422 840 l 494 1042 q 519 1096 511 1088 q 551 1104 526 1104 l 679 1104 q 691 1093 692 1103 q 682 1076 690 1083 z "},"û":{"ha":778,"x_min":60,"x_max":764,"o":"m 504 575 q 503 606 504 597 q 497 632 503 615 q 478 658 492 649 q 440 675 464 668 l 699 743 l 699 208 q 699 189 699 206 q 699 167 699 172 q 700 147 699 163 q 703 124 701 131 q 710 103 706 117 q 722 82 715 90 q 740 65 729 74 q 764 49 750 56 l 553 1 q 522 56 536 15 q 374 -6 453 4 q 222 18 296 -17 q 194 37 207 26 q 171 56 181 47 q 153 81 161 65 q 141 105 146 97 q 133 133 136 113 q 127 158 129 153 q 124 188 125 164 q 124 215 124 213 q 124 244 124 218 l 124 271 l 124 575 q 123 606 124 597 q 117 632 122 615 q 97 658 111 649 q 60 675 83 668 l 318 743 l 318 333 q 325 196 318 226 q 367 146 332 165 q 460 153 410 124 q 478 167 471 158 q 491 189 486 176 q 499 210 496 201 q 503 238 501 219 q 504 263 504 256 q 504 290 504 269 q 504 314 504 311 l 504 575 m 421 1093 q 435 1093 426 1093 q 447 1093 444 1093 q 456 1092 450 1093 q 465 1090 463 1092 q 472 1087 468 1089 q 480 1081 476 1085 q 488 1072 483 1076 q 496 1058 492 1067 l 615 875 q 629 838 635 843 q 594 846 621 829 l 422 963 l 246 846 q 211 838 219 829 q 225 875 206 843 l 346 1058 q 356 1073 351 1067 q 365 1083 360 1079 q 374 1089 371 1086 q 383 1092 376 1092 q 392 1093 390 1093 q 406 1093 394 1093 q 421 1093 417 1093 z "},"ü":{"ha":778,"x_min":60,"x_max":764,"o":"m 504 575 q 503 606 504 597 q 497 632 503 615 q 478 658 492 649 q 440 675 464 668 l 699 743 l 699 208 q 699 189 699 206 q 699 167 699 172 q 700 147 699 163 q 703 124 701 131 q 710 103 706 117 q 722 82 715 90 q 740 65 729 74 q 764 49 750 56 l 553 1 q 522 56 536 15 q 374 -6 453 4 q 222 18 296 -17 q 194 37 207 26 q 171 56 181 47 q 153 81 161 65 q 141 105 146 97 q 133 133 136 113 q 127 158 129 153 q 124 188 125 164 q 124 215 124 213 q 124 244 124 218 l 124 271 l 124 575 q 123 606 124 597 q 117 632 122 615 q 97 658 111 649 q 60 675 83 668 l 318 743 l 318 333 q 325 196 318 226 q 367 146 332 165 q 460 153 410 124 q 478 167 471 158 q 491 189 486 176 q 499 210 496 201 q 503 238 501 219 q 504 263 504 256 q 504 290 504 269 q 504 314 504 311 l 504 575 m 243 861 q 229 875 243 861 q 215 928 215 889 q 244 995 215 967 q 311 1024 272 1024 q 380 995 351 1024 q 408 928 408 967 q 380 861 408 889 q 311 833 351 833 q 243 861 271 833 m 463 861 q 449 875 463 861 q 435 928 435 889 q 463 995 435 967 q 529 1024 490 1024 q 598 995 569 1024 q 626 928 626 967 q 598 861 626 889 q 529 833 569 833 q 463 861 490 833 z "},"ÿ":{"ha":739,"x_min":32,"x_max":740,"o":"m 353 735 q 313 636 293 701 l 418 308 l 504 589 q 482 735 533 682 l 740 735 q 706 699 718 719 q 681 639 693 679 l 439 -136 q 420 -195 428 -174 q 400 -234 413 -217 q 381 -258 388 -251 q 351 -270 374 -265 q 313 -275 328 -275 q 258 -275 299 -275 q 232 -275 242 -275 l 157 -275 q 226 -222 197 -265 q 289 -100 256 -179 q 310 -18 311 -43 q 288 72 308 7 q 279 96 282 88 l 97 640 q 32 735 75 706 l 353 735 m 256 861 q 242 875 256 861 q 228 928 228 889 q 256 995 228 967 q 324 1024 283 1024 q 392 995 364 1024 q 421 928 421 967 q 392 861 421 889 q 324 833 364 833 q 256 861 283 833 m 475 861 q 461 875 475 861 q 447 928 447 889 q 475 995 447 967 q 542 1024 503 1024 q 610 995 582 1024 q 639 928 639 967 q 610 861 639 889 q 542 833 582 833 q 475 861 503 833 z "},"ı":{"ha":396,"x_min":60,"x_max":375,"o":"m 318 132 q 319 81 318 99 q 334 40 321 64 q 375 0 347 15 l 67 0 q 108 40 94 15 q 122 81 121 64 q 124 132 124 99 l 124 575 q 123 606 124 597 q 117 632 122 615 q 97 658 111 649 q 60 675 83 668 l 318 743 l 318 132 z "},"Ÿ":{"ha":958,"x_min":44,"x_max":974,"o":"m 390 346 q 383 490 390 458 q 322 625 376 521 l 144 969 q 44 1088 104 1047 l 443 1088 q 415 1023 415 1061 q 423 960 414 985 q 456 886 432 935 l 543 704 l 675 982 q 678 1041 690 1013 q 632 1088 667 1069 l 974 1088 q 874 974 919 1067 l 685 590 q 633 476 638 496 q 628 354 628 456 l 628 158 q 638 56 628 79 q 690 0 653 25 l 328 0 q 381 55 371 28 q 390 139 390 82 q 390 148 390 144 q 390 156 390 151 l 390 346 m 807 1451 l 600 1235 q 558 1210 569 1204 q 561 1260 546 1215 l 618 1417 q 642 1471 635 1463 q 676 1479 650 1479 l 804 1479 q 816 1468 817 1478 q 807 1451 815 1458 z "},"ˆ":{"ha":494,"x_min":51,"x_max":481,"o":"m 265 1088 q 280 1088 271 1088 q 292 1088 289 1088 q 301 1087 294 1088 q 310 1085 307 1086 q 317 1081 313 1083 q 324 1075 321 1079 q 332 1066 328 1071 q 340 1053 336 1061 l 461 869 q 475 832 481 838 q 440 840 467 824 l 267 957 l 92 840 q 57 832 65 824 q 71 869 51 838 l 190 1053 q 200 1067 196 1061 q 210 1077 204 1074 q 218 1083 215 1081 q 228 1087 221 1086 q 237 1088 235 1088 q 250 1088 239 1088 q 265 1088 261 1088 z "},"˚":{"ha":281,"x_min":71,"x_max":275,"o":"m 101 912 q 86 927 101 912 q 71 985 71 942 q 101 1058 71 1028 q 174 1088 131 1088 q 245 1058 215 1088 q 275 985 275 1028 q 245 912 275 942 q 174 882 215 882 q 101 912 131 882 m 138 949 q 145 942 138 949 q 174 935 153 935 q 209 949 194 935 q 224 986 224 964 q 209 1022 224 1007 q 174 1038 194 1038 q 138 1022 153 1038 q 122 986 122 1006 q 138 949 122 964 z "},"˜":{"ha":568,"x_min":65,"x_max":561,"o":"m 67 878 q 78 946 71 921 q 107 1017 88 989 q 217 1079 151 1079 q 347 1033 264 1078 q 446 986 429 989 q 495 1007 472 982 q 547 1088 518 1032 q 558 1092 550 1097 l 561 1086 q 517 943 561 997 q 392 890 463 882 q 285 933 358 896 q 259 947 275 939 q 235 959 243 956 q 217 967 228 963 q 197 974 206 972 q 181 974 189 975 q 124 940 151 971 q 82 875 97 908 q 72 871 79 869 q 67 878 65 872 z "},"–":{"ha":971,"x_min":72,"x_max":915,"o":"m 915 825 l 915 646 l 72 646 l 72 825 l 915 825 z "},"—":{"ha":1197,"x_min":72,"x_max":1142,"o":"m 1142 825 l 1142 646 l 72 646 l 72 825 l 1142 825 z "},"‘":{"ha":315,"x_min":71,"x_max":317,"o":"m 264 1088 q 203 960 214 1019 q 269 928 246 947 q 301 869 292 908 q 271 756 317 806 q 169 724 228 710 q 86 796 110 735 q 82 891 71 832 q 128 994 93 950 q 192 1052 151 1025 q 264 1088 233 1079 z "},"’":{"ha":315,"x_min":58,"x_max":304,"o":"m 111 721 q 172 849 161 789 q 106 880 129 861 q 74 938 83 899 q 104 1053 58 1003 q 206 1085 147 1099 q 289 1013 265 1074 q 293 917 304 976 q 247 814 282 857 q 183 756 224 783 q 111 721 142 729 z "},"“":{"ha":586,"x_min":61,"x_max":571,"o":"m 519 1088 q 458 960 469 1019 q 523 928 500 947 q 556 869 546 908 q 525 756 571 806 q 424 724 483 710 q 340 796 364 735 q 336 891 325 832 q 382 994 347 950 q 447 1051 406 1024 q 519 1088 489 1079 m 254 1088 q 193 960 204 1019 q 259 928 236 947 q 292 869 282 908 q 261 756 307 806 q 160 724 218 710 q 76 796 100 735 q 72 891 61 832 q 118 994 83 950 q 183 1052 142 1025 q 254 1088 224 1079 z "},"”":{"ha":586,"x_min":67,"x_max":576,"o":"m 119 721 q 179 849 169 789 q 115 880 138 861 q 82 938 92 899 q 113 1053 67 1003 q 214 1085 156 1097 q 297 1013 274 1074 q 301 917 313 976 q 256 814 290 857 q 191 756 232 783 q 119 721 150 729 m 383 721 q 444 849 433 789 q 378 880 401 861 q 346 938 356 899 q 376 1053 331 1003 q 479 1085 419 1099 q 561 1013 538 1074 q 565 917 576 976 q 521 814 554 857 q 456 757 497 785 q 383 721 414 729 z "},"‹":{"ha":376,"x_min":63,"x_max":363,"o":"m 344 839 l 358 831 l 203 500 l 363 206 l 351 197 l 63 507 l 344 839 z "},"›":{"ha":376,"x_min":63,"x_max":363,"o":"m 363 507 l 74 197 l 63 206 l 221 500 l 67 831 l 81 839 l 363 507 z "},"⁄":{"ha":958,"x_min":40,"x_max":969,"o":"m 386 346 q 379 490 386 458 q 318 625 372 521 l 140 969 q 40 1088 100 1047 l 439 1088 q 410 1023 411 1061 q 419 960 410 985 q 451 886 428 935 l 539 704 l 671 982 q 674 1041 686 1013 q 628 1088 663 1069 l 969 1088 q 869 974 915 1067 l 681 590 q 628 476 633 496 q 624 354 624 456 l 624 158 q 633 56 624 79 q 686 0 649 25 l 324 0 q 376 55 367 28 q 386 139 386 82 q 386 148 386 144 q 386 156 386 151 l 386 346 m 374 1236 q 360 1250 374 1236 q 346 1303 346 1264 q 374 1370 346 1342 q 442 1399 403 1399 q 509 1370 481 1399 q 538 1303 538 1342 q 510 1236 538 1264 q 442 1208 482 1208 q 374 1236 401 1208 m 592 1236 q 578 1250 592 1236 q 564 1303 564 1264 q 592 1370 564 1342 q 660 1399 619 1399 q 728 1370 700 1399 q 757 1303 757 1342 q 728 1236 757 1264 q 660 1208 700 1208 q 592 1236 619 1208 z "},"™":{"ha":439,"x_min":63,"x_max":436,"o":"m 122 1057 l 86 1057 q 63 1047 68 1057 l 71 1088 l 217 1088 l 210 1046 q 192 1057 204 1057 l 165 1057 l 165 919 q 175 892 165 899 l 111 892 q 122 919 122 900 l 122 1057 m 292 1088 l 336 967 l 378 1088 l 436 1088 q 425 1060 425 1079 l 425 919 q 436 892 425 899 l 371 892 q 382 919 382 897 l 382 1007 l 346 892 l 319 892 l 279 1008 l 279 919 q 290 892 279 897 l 233 892 q 244 919 244 897 l 244 1060 q 233 1088 244 1081 l 292 1088 z "},"∞":{"ha":739,"x_min":32,"x_max":740,"o":"m 353 735 q 313 636 293 701 l 418 308 l 504 589 q 482 735 533 682 l 740 735 q 706 699 718 719 q 681 639 693 679 l 439 -136 q 420 -195 428 -174 q 400 -234 413 -217 q 381 -258 388 -251 q 351 -270 374 -265 q 313 -275 328 -275 q 258 -275 299 -275 q 232 -275 242 -275 l 157 -275 q 226 -222 197 -265 q 289 -100 256 -179 q 310 -18 311 -43 q 288 72 308 7 q 279 96 282 88 l 97 640 q 32 735 75 706 l 353 735 m 653 1076 l 447 861 q 406 835 418 829 q 408 885 393 840 l 465 1042 q 490 1096 482 1088 q 522 1104 497 1104 l 650 1104 q 662 1093 663 1103 q 653 1076 661 1083 z "}}}
